0
SECTION
2
HEADER
9
$INSUNITS
70
4
9
$ACADVER
1
AC1014
9
$HANDSEED
5
FFFF
0
ENDSEC
0
SECTION
2
TABLES
0
TABLE
2
VPORT
5
8
100
AcDbSymbolTable
0
ENDTAB
0
TABLE
2
LTYPE
5
5
100
AcDbSymbolTable
0
LTYPE
5
14
100
AcDbSymbolTableRecord
100
AcDbLinetypeTableRecord
2
BYBLOCK
70
0
0
LTYPE
5
15
100
AcDbSymbolTableRecord
100
AcDbLinetypeTableRecord
2
BYLAYER
70
0
0
ENDTAB
0
TABLE
2
LAYER
5
2
100
AcDbSymbolTable
70
2
0
LAYER
5
50
100
AcDbSymbolTableRecord
100
AcDbLayerTableRecord
2
0
70
0
6
CONTINUOUS
0
ENDTAB
0
TABLE
2
STYLE
5
3
100
AcDbSymbolTable
70
1
0
STYLE
5
11
100
AcDbSymbolTableRecord
100
AcDbTextStyleTableRecord
2
STANDARD
70
0
0
ENDTAB
0
TABLE
2
VIEW
5
6
100
AcDbSymbolTable
70
0
0
ENDTAB
0
TABLE
2
UCS
5
7
100
AcDbSymbolTable
70
0
0
ENDTAB
0
TABLE
2
APPID
5
9
100
AcDbSymbolTable
70
2
0
APPID
5
12
100
AcDbSymbolTableRecord
100
AcDbRegAppTableRecord
2
ACAD
70
0
0
ENDTAB
0
TABLE
2
DIMSTYLE
5
A
100
AcDbSymbolTable
70
1
0
ENDTAB
0
TABLE
2
BLOCK_RECORD
5
1
100
AcDbSymbolTable
70
1
0
BLOCK_RECORD
5
1F
100
AcDbSymbolTableRecord
100
AcDbBlockTableRecord
2
*MODEL_SPACE
0
BLOCK_RECORD
5
1B
100
AcDbSymbolTableRecord
100
AcDbBlockTableRecord
2
*PAPER_SPACE
0
ENDTAB
0
ENDSEC
0
SECTION
2
BLOCKS
0
BLOCK
5
20
100
AcDbEntity
100
AcDbBlockBegin
2
*MODEL_SPACE
0
ENDBLK
5
21
100
AcDbEntity
100
AcDbBlockEnd
0
BLOCK
5
1C
100
AcDbEntity
100
AcDbBlockBegin
2
*PAPER_SPACE
0
ENDBLK
5
1D
100
AcDbEntity
100
AcDbBlockEnd
0
ENDSEC
0
SECTION
2
ENTITIES
0
LINE
5
100
100
AcDbEntity
8
0
100
AcDbLine
10
1.9912966000462444
20
-26.467312736134197
30
0
11
9.546791323015281
21
-26.467312736134197
31
0
0
LINE
5
101
100
AcDbEntity
8
0
100
AcDbLine
10
11.008294512887655
20
-25.304964074044868
30
0
11
15.779865253998642
21
-4.6515116044432716
31
0
0
SPLINE
5
102
100
AcDbEntity
8
0
100
AcDbSpline
70
4
71
5
72
51
73
45
74
0
42
0.000000001
43
0.0000000001
44
0.0000000001
40
0.0012744056668535335
40
0.0012744056668535335
40
0.0012744056668535335
40
0.0012744056668535335
40
0.0012744056668535335
40
0.0012744056668535335
40
0.025000000000000001
40
0.050000000000000003
40
0.075000000000000011
40
0.10000000000000001
40
0.125
40
0.14999999999999999
40
0.17499999999999999
40
0.19999999999999998
40
0.22499999999999998
40
0.24999999999999997
40
0.27499999999999997
40
0.29999999999999999
40
0.32500000000000001
40
0.35000000000000003
40
0.37500000000000006
40
0.40000000000000008
40
0.4250000000000001
40
0.45000000000000012
40
0.47500000000000014
40
0.50000000000000011
40
0.52500000000000013
40
0.55000000000000016
40
0.57500000000000018
40
0.6000000000000002
40
0.62500000000000022
40
0.65000000000000024
40
0.67500000000000027
40
0.70000000000000029
40
0.72500000000000031
40
0.75000000000000033
40
0.77500000000000036
40
0.80000000000000038
40
0.8250000000000004
40
0.85000000000000042
40
0.87500000000000044
40
0.90000000000000047
40
0.92500000000000049
40
0.95000000000000051
40
0.97500000000000053
40
0.99561540939437332
40
0.99561540939437332
40
0.99561540939437332
40
0.99561540939437332
40
0.99561540939437332
40
0.99561540939437332
41
1
41
1
41
1
41
1
41
1
41
1
41
1
41
1
41
1
41
1
41
1
41
1
41
1
41
1
41
1
41
1
41
1
41
1
41
1
41
1
41
1
41
1
41
1
41
1
41
1
41
1
41
1
41
1
41
1
41
1
41
1
41
1
41
1
41
1
41
1
41
1
41
1
41
1
41
1
41
1
41
1
41
1
41
1
41
1
41
1
10
15.819008804376695
20
-4.5489741648865714
30
0
10
15.918960330194924
20
-4.367010982003273
30
0
10
16.126555006868596
20
-4.0138738982181223
30
0
10
16.447882452591521
20
-3.5434578024033456
30
0
10
16.892807794143579
20
-3.0431294010927274
30
0
10
17.476995179217145
20
-2.6389989815029349
30
0
10
18.100052086627514
20
-2.4730263856260306
30
0
10
18.768195776687733
20
-2.5792495485638804
30
0
10
19.497173115196389
20
-2.9961310414992406
30
0
10
20.298678825101433
20
-3.7533017875217345
30
0
10
21.173220251349612
20
-4.8552901304683544
30
0
10
22.10516034112327
20
-6.2697393010881139
30
0
10
23.068681787352844
20
-7.9387277078389946
30
0
10
24.031955465073569
20
-9.7862633319911296
30
0
10
24.962018032710027
20
-11.727236749323023
30
0
10
25.829254370544248
20
-13.675559240225816
30
0
10
26.612247769376989
20
-15.552923986897838
30
0
10
27.302063935300236
20
-17.296623364890497
30
0
10
27.907991771008795
20
-18.869658834839385
30
0
10
28.452393583195175
20
-20.253837657701613
30
0
10
28.963614942384275
20
-21.440008704518583
30
0
10
29.469417189980106
20
-22.418751233707933
30
0
10
29.990618240810075
20
-23.172240327921703
30
0
10
30.533620685424992
20
-23.662396475868988
30
0
10
31.086482889360212
20
-23.830259326414755
30
0
10
31.626080166845142
20
-23.624806864212196
30
0
10
32.123794446777985
20
-23.033292280651079
30
0
10
32.55010803454487
20
-22.087432599803954
30
0
10
32.877362282087994
20
-20.843807663551427
30
0
10
33.082797344107171
20
-19.372499324572871
30
0
10
33.152151745480879
20
-17.740546580802565
30
0
10
33.080688490182993
20
-16.004524910915386
30
0
10
32.87064088115477
20
-14.212923408156142
30
0
10
32.529584766571716
20
-12.406151710784206
30
0
10
32.06849326220803
20
-10.617475419624903
30
0
10
31.499898604755451
20
-8.8735163437831091
30
0
10
30.836155057101763
20
-7.1949279484607072
30
0
10
30.087345723146178
20
-5.5969208983333214
30
0
10
29.260698397802752
20
-4.09001429538948
30
0
10
28.361256759623821
20
-2.6809302651182287
30
0
10
27.42618079973154
20
-1.4192914274255806
30
0
10
26.635273020599641
20
-0.49464530126223066
30
0
10
26.02434995840013
20
0.14693809247344078
30
0
10
25.618541270382551
20
0.54415918984814038
30
0
10
25.432858993681606
20
0.72016189012973864
30
0
0
LINE
5
103
100
AcDbEntity
8
0
100
AcDbLine
10
0.49129660004624598
20
-27.967312736134197
30
0
11
0.49129660004624515
21
-32.138473832010071
31
0
0
LINE
5
104
100
AcDbEntity
8
0
100
AcDbLine
10
1.4912966000462449
20
-33.138473832010071
30
0
11
16.205040811097131
21
-33.138473832010071
31
0
0
LINE
5
105
100
AcDbEntity
8
0
100
AcDbLine
10
16.668465627243432
20
-32.450757450786256
30
0
11
14.530093830622492
21
-27.171652077878299
31
0
0
LINE
5
106
100
AcDbEntity
8
0
100
AcDbLine
10
14.456943462915097
20
-26.796219315430669
30
0
11
14.456943462915097
21
-25.742743367152116
31
0
0
LINE
5
107
100
AcDbEntity
8
0
100
AcDbLine
10
14.482358016091538
20
-25.5187272810339
30
0
11
18.057040663311106
21
-9.9670151457074994
31
0
0
SPLINE
5
108
100
AcDbEntity
8
0
100
AcDbSpline
70
4
71
5
72
21
73
15
74
0
42
0.000000001
43
0.0000000001
44
0.0000000001
40
0.027858337071049358
40
0.027858337071049358
40
0.027858337071049358
40
0.027858337071049358
40
0.027858337071049358
40
0.027858337071049358
40
0.10000000000000001
40
0.20000000000000001
40
0.30000000000000004
40
0.40000000000000002
40
0.5
40
0.59999999999999998
40
0.69999999999999996
40
0.79999999999999993
40
0.89999999999999991
40
1
40
1
40
1
40
1
40
1
40
1
41
1
41
1
41
1
41
1
41
1
41
1
41
1
41
1
41
1
41
1
41
1
41
1
41
1
41
1
41
1
10
18.444117035421019
20
-9.9563673931032977
30
0
10
18.555334213830768
20
-10.341778383882122
30
0
10
18.823293991942347
20
-11.258299141248862
30
0
10
19.256671656707894
20
-12.69538810617097
30
0
10
19.870763184383147
20
-14.634458753781081
30
0
10
20.68943293887876
20
-17.046512896196166
30
0
10
21.605661520684684
20
-19.54103871607364
30
0
10
22.575479753630738
20
-21.970446405070881
30
0
10
23.601803624769001
20
-24.331192674089102
30
0
10
24.683162403101413
20
-26.625064645295303
30
0
10
25.815714275367764
20
-28.856730602457588
30
0
10
26.759509891463622
20
-30.596187390946255
30
0
10
27.487266757531085
20
-31.876586654189786
30
0
10
27.981143546990953
20
-32.719607836163107
30
0
10
28.230258339123502
20
-33.138473832010071
30
0
0
LINE
5
109
100
AcDbEntity
8
0
100
AcDbLine
10
28.230258339123502
20
-33.138473832010071
30
0
11
36.245238182340813
21
-33.138473832010071
31
0
0
SPLINE
5
110
100
AcDbEntity
8
0
100
AcDbSpline
70
4
71
5
72
31
73
25
74
0
42
0.000000001
43
0.0000000001
44
0.0000000001
40
0
40
0
40
0
40
0
40
0
40
0
40
0.050000000000000003
40
0.10000000000000001
40
0.15000000000000002
40
0.20000000000000001
40
0.25
40
0.29999999999999999
40
0.34999999999999998
40
0.39999999999999997
40
0.44999999999999996
40
0.49999999999999994
40
0.54999999999999993
40
0.59999999999999998
40
0.65000000000000002
40
0.70000000000000007
40
0.75000000000000011
40
0.80000000000000016
40
0.8500000000000002
40
0.90000000000000024
40
0.95000000000000029
40
1
40
1
40
1
40
1
40
1
40
1
41
1
41
1
41
1
41
1
41
1
41
1
41
1
41
1
41
1
41
1
41
1
41
1
41
1
41
1
41
1
41
1
41
1
41
1
41
1
41
1
41
1
41
1
41
1
41
1
41
1
10
36.245238182340813
20
-33.138473832010071
30
0
10
36.472001734184083
20
-32.7469165693619
30
0
10
36.901186167225504
20
-31.93437880792618
30
0
10
37.471934991093619
20
-30.627304522817642
30
0
10
38.086280236045525
20
-28.707265078985706
30
0
10
38.60608453126963
20
-26.01343744380209
30
0
10
38.872770741411358
20
-23.038045204103202
30
0
10
38.881189587902391
20
-19.812096347813334
30
0
10
38.627309310507464
20
-16.392125800887733
30
0
10
38.109820343388243
20
-12.872247967679851
30
0
10
37.331542059833247
20
-9.3777419629344596
30
0
10
36.300788166622567
20
-6.0438774567735853
30
0
10
35.03301854732706
20
-2.9995129633113504
30
0
10
33.552919917750302
20
-0.34792855981227855
30
0
10
31.896371368210232
20
1.8502991112507507
30
0
10
30.113726270666056
20
3.5998986076561512
30
0
10
28.270413691189908
20
4.981795698726236
30
0
10
26.437009875395347
20
6.1186650649571206
30
0
10
24.680676771181634
20
7.147381654796666
30
0
10
23.056925157069642
20
8.1917060638770938
30
0
10
21.598828359922827
20
9.3292349090296263
30
0
10
20.576129104605528
20
10.342395764059445
30
0
10
19.891481502254837
20
11.165328323921367
30
0
10
19.471501746645632
20
11.741834824641739
30
0
10
19.270625505641206
20
12.037060931728711
30
0
0
SPLINE
5
111
100
AcDbEntity
8
0
100
AcDbSpline
70
4
71
5
72
26
73
20
74
0
42
0.000000001
43
0.0000000001
44
0.0000000001
40
0
40
0
40
0
40
0
40
0
40
0
40
0.066666666666666666
40
0.13333333333333333
40
0.20000000000000001
40
0.26666666666666666
40
0.33333333333333331
40
0.39999999999999997
40
0.46666666666666662
40
0.53333333333333333
40
0.59999999999999998
40
0.66666666666666663
40
0.73333333333333328
40
0.79999999999999993
40
0.86666666666666659
40
0.93333333333333324
40
1
40
1
40
1
40
1
40
1
40
1
41
1
41
1
41
1
41
1
41
1
41
1
41
1
41
1
41
1
41
1
41
1
41
1
41
1
41
1
41
1
41
1
41
1
41
1
41
1
41
1
10
27.482899333454213
20
14.107807795523986
30
0
10
27.356437615912345
20
14.047570151083868
30
0
10
27.101315177602835
20
13.930734469843832
30
0
10
26.712034479986219
20
13.766399754399998
30
0
10
26.179703775100073
20
13.569283312574502
30
0
10
25.49229465207517
20
13.360218843815412
30
0
10
24.784387580516714
20
13.188811756905476
30
0
10
24.059825926644859
20
13.054350264033642
30
0
10
23.325973489385134
20
12.954223748118707
30
0
10
22.594836511421473
20
12.883050214629828
30
0
10
21.884744610572952
20
12.831348895169912
30
0
10
21.218163807342293
20
12.786922409910449
30
0
10
20.619041832978429
20
12.736515925428904
30
0
10
20.110089215061709
20
12.667380178846415
30
0
10
19.710235179886816
20
12.568704786488297
30
0
10
19.430716839126948
20
12.433639428344122
30
0
10
19.305623179361191
20
12.294523558853211
30
0
10
19.266871151515868
20
12.172584520568622
30
0
10
19.265325528298391
20
12.083529368116121
30
0
10
19.270625505641206
20
12.037060931728711
30
0
0
SPLINE
5
112
100
AcDbEntity
8
0
100
AcDbSpline
70
4
71
5
72
21
73
15
74
0
42
0.000000001
43
0.0000000001
44
0.0000000001
40
0
40
0
40
0
40
0
40
0
40
0
40
0.10000000000000001
40
0.20000000000000001
40
0.30000000000000004
40
0.40000000000000002
40
0.5
40
0.59999999999999998
40
0.69999999999999996
40
0.79999999999999993
40
0.89999999999999991
40
1
40
1
40
1
40
1
40
1
40
1
41
1
41
1
41
1
41
1
41
1
41
1
41
1
41
1
41
1
41
1
41
1
41
1
41
1
41
1
41
1
10
27.482899333454213
20
14.107807795523986
30
0
10
27.295877575757551
20
14.090671501328966
30
0
10
26.924807027233197
20
14.060175523620577
30
0
10
26.377119551856104
20
14.025760686366663
30
0
10
25.665004509851229
20
14.00291134242309
30
0
10
24.807205982831224
20
14.015438419377055
30
0
10
23.984893595174483
20
14.073044146338574
30
0
10
23.201381012405541
20
14.179937929321227
30
0
10
22.459164973677353
20
14.339291418791278
30
0
10
21.757675674650216
20
14.550380782547474
30
0
10
21.094273755130388
20
14.809853196177013
30
0
10
20.591743775101023
20
15.053243342508386
30
0
10
20.229728560273355
20
15.254691154725617
30
0
10
19.99489281031601
20
15.397256572646222
30
0
10
19.879101841169042
20
15.470605967921482
30
0
0
SPLINE
5
113
100
AcDbEntity
8
0
100
AcDbSpline
70
4
71
5
72
21
73
15
74
0
42
0.000000001
43
0.0000000001
44
0.0000000001
40
0
40
0
40
0
40
0
40
0
40
0
40
0.10000000000000001
40
0.20000000000000001
40
0.30000000000000004
40
0.40000000000000002
40
0.5
40
0.59999999999999998
40
0.69999999999999996
40
0.79999999999999993
40
0.89999999999999991
40
1
40
1
40
1
40
1
40
1
40
1
41
1
41
1
41
1
41
1
41
1
41
1
41
1
41
1
41
1
41
1
41
1
41
1
41
1
41
1
41
1
10
30.468835391364681
20
18.555478241616555
30
0
10
30.199082761467437
20
18.469683749758399
30
0
10
29.664384813016088
20
18.300093490749841
30
0
10
28.876758903530224
20
18.051703893505533
30
0
10
27.855915500523366
20
17.732709933471654
30
0
10
26.632280198646569
20
17.355761589695458
30
0
10
25.466500733617362
20
17.002867833257447
30
0
10
24.36465948759697
20
16.67655752210398
30
0
10
23.332044434116618
20
16.379029224744919
30
0
10
22.369664753833863
20
16.110702525884349
30
0
10
21.473854581633333
20
15.870053277270289
30
0
10
20.806876660837929
20
15.698185149484651
30
0
10
20.332930276008533
20
15.58021336195905
30
0
10
20.028462058049257
20
15.506345184957855
30
0
10
19.879101841169042
20
15.470605967921482
30
0
0
SPLINE
5
114
100
AcDbEntity
8
0
100
AcDbSpline
70
4
71
5
72
21
73
15
74
0
42
0.000000001
43
0.0000000001
44
0.0000000001
40
0
40
0
40
0
40
0
40
0
40
0
40
0.10000000000000001
40
0.20000000000000001
40
0.30000000000000004
40
0.40000000000000002
40
0.5
40
0.59999999999999998
40
0.69999999999999996
40
0.79999999999999993
40
0.89999999999999991
40
1
40
1
40
1
40
1
40
1
40
1
41
1
41
1
41
1
41
1
41
1
41
1
41
1
41
1
41
1
41
1
41
1
41
1
41
1
41
1
41
1
10
30.468835391364681
20
18.555478241616555
30
0
10
30.239162474759279
20
18.520806364411389
30
0
10
29.783358768638493
20
18.455413358090741
30
0
10
29.110278892600398
20
18.369175314215628
30
0
10
28.234446082707876
20
18.278290874357598
30
0
10
27.17821978373269
20
18.207698876530742
30
0
10
26.164387948594914
20
18.184391982477372
30
0
10
25.197066463471067
20
18.212960888420998
30
0
10
24.279539934828151
20
18.297069114162269
30
0
10
23.411559705501666
20
18.436439317361671
30
0
10
22.590097668587816
20
18.627694067661654
30
0
10
21.967447640828979
20
18.819199662816331
30
0
10
21.518696469632349
20
18.983168960374659
30
0
10
21.227503830775085
20
19.101376610686739
30
0
10
21.083901157868112
20
19.162704070113442
30
0
0
SPLINE
5
115
100
AcDbEntity
8
0
100
AcDbSpline
70
4
71
5
72
21
73
15
74
0
42
0.000000001
43
0.0000000001
44
0.0000000001
40
0
40
0
40
0
40
0
40
0
40
0
40
0.10000000000000001
40
0.20000000000000001
40
0.30000000000000004
40
0.40000000000000002
40
0.5
40
0.59999999999999998
40
0.69999999999999996
40
0.79999999999999993
40
0.89999999999999991
40
1
40
1
40
1
40
1
40
1
40
1
41
1
41
1
41
1
41
1
41
1
41
1
41
1
41
1
41
1
41
1
41
1
41
1
41
1
41
1
41
1
10
33.16092412753563
20
23.736212498182304
30
0
10
32.890325228910939
20
23.621481836673077
30
0
10
32.35160121734404
20
23.394000712039546
30
0
10
31.55093610004602
20
23.058719254431885
30
0
10
30.498472537422941
20
22.623756388580155
30
0
10
29.209805791039511
20
22.101595698643148
30
0
10
27.950660005102016
20
21.603065737349922
30
0
10
26.723782700943381
20
21.130365821051164
30
0
10
25.531232741202096
20
20.685144013479672
30
0
10
24.372511638797377
20
20.267001289237683
30
0
10
23.245416971434544
20
19.874174668976007
30
0
10
22.367145562454652
20
19.578647900455376
30
0
10
21.720796363052102
20
19.366892152229504
30
0
10
21.295299190575573
20
19.230046043156804
30
0
10
21.083901157868112
20
19.162704070113442
30
0
0
SPLINE
5
116
100
AcDbEntity
8
0
100
AcDbSpline
70
4
71
5
72
61
73
55
74
0
42
0.000000001
43
0.0000000001
44
0.0000000001
40
0
40
0
40
0
40
0
40
0
40
0
40
0.02
40
0.040000000000000001
40
0.059999999999999998
40
0.080000000000000002
40
0.10000000000000001
40
0.12000000000000001
40
0.14000000000000001
40
0.16
40
0.17999999999999999
40
0.19999999999999998
40
0.21999999999999997
40
0.23999999999999996
40
0.25999999999999995
40
0.27999999999999997
40
0.29999999999999999
40
0.32000000000000001
40
0.34000000000000002
40
0.36000000000000004
40
0.38000000000000006
40
0.40000000000000008
40
0.4200000000000001
40
0.44000000000000011
40
0.46000000000000013
40
0.48000000000000015
40
0.50000000000000011
40
0.52000000000000013
40
0.54000000000000015
40
0.56000000000000016
40
0.58000000000000018
40
0.6000000000000002
40
0.62000000000000022
40
0.64000000000000024
40
0.66000000000000025
40
0.68000000000000027
40
0.70000000000000029
40
0.72000000000000031
40
0.74000000000000032
40
0.76000000000000034
40
0.78000000000000036
40
0.80000000000000038
40
0.8200000000000004
40
0.84000000000000041
40
0.86000000000000043
40
0.88000000000000045
40
0.90000000000000047
40
0.92000000000000048
40
0.9400000000000005
40
0.96000000000000052
40
0.98000000000000054
40
1
40
1
40
1
40
1
40
1
40
1
41
1
41
1
41
1
41
1
41
1
41
1
41
1
41
1
41
1
41
1
41
1
41
1
41
1
41
1
41
1
41
1
41
1
41
1
41
1
41
1
41
1
41
1
41
1
41
1
41
1
41
1
41
1
41
1
41
1
41
1
41
1
41
1
41
1
41
1
41
1
41
1
41
1
41
1
41
1
41
1
41
1
41
1
41
1
41
1
41
1
41
1
41
1
41
1
41
1
41
1
41
1
41
1
41
1
41
1
41
1
10
33.16092412753563
20
23.736212498182304
30
0
10
32.805064510969984
20
23.705380552747076
30
0
10
32.094033264983729
20
23.647820029505077
30
0
10
31.029550361742931
20
23.573789347831099
30
0
10
29.614370405615457
20
23.499718012969648
30
0
10
27.852492076063683
20
23.448103241914595
30
0
10
26.098319959823016
20
23.437043247541077
30
0
10
24.353055232477971
20
23.465576205278559
30
0
10
22.618681380554172
20
23.531986701502802
30
0
10
20.898166776900627
20
23.633594236738851
30
0
10
19.19564455352263
20
23.766534087124445
30
0
10
17.516652852101519
20
23.925547077354132
30
0
10
15.868201185557156
20
24.103730987824964
30
0
10
14.25831280945382
20
24.292201069922143
30
0
10
12.695658387548177
20
24.479744813714653
30
0
10
11.1891596977243
20
24.652507573075802
30
0
10
9.7475943877097198
20
24.793577881168613
30
0
10
8.3792254122026755
20
24.882794184180483
30
0
10
7.091352406382029
20
24.895998932039895
30
0
10
5.8901007686657847
20
24.805968933433114
30
0
10
4.7808031389744716
20
24.587430750402749
30
0
10
3.7682720526676245
20
24.221410519900964
30
0
10
2.8570919197714701
20
23.69962139733633
30
0
10
2.0519454038243716
20
23.029435774057472
30
0
10
1.3577883789186564
20
22.237017117422173
30
0
10
0.77889102998356097
20
21.357506407208042
30
0
10
0.31795583320617771
20
20.425680759160635
30
0
10
-0.024736474490432685
20
19.468119823588097
30
0
10
-0.25236006126800686
20
18.490692970739723
30
0
10
-0.37184071139992791
20
17.482628132923413
30
0
10
-0.39273463688370985
20
16.436723924410245
30
0
10
-0.32721485123150662
20
15.370322504731114
30
0
10
-0.18803374411123547
20
14.33532228499123
30
0
10
0.008828325324815426
20
13.458984199404146
30
0
10
0.26136717153791966
20
12.838687922045228
30
0
10
0.58702113132491263
20
12.499659980720189
30
0
10
1.0629943661912542
20
12.148230477780359
30
0
10
1.7491988016177509
20
11.622275474075796
30
0
10
2.6663492825964119
20
10.968456788751928
30
0
10
3.8101201371995161
20
10.30503734319942
30
0
10
5.1502754314421306
20
9.7790005348103346
30
0
10
6.635750092981068
20
9.4725301662084043
30
0
10
8.199591005583498
20
9.4031472717145963
30
0
10
9.7650110067019575
20
9.5363162396339014
30
0
10
11.252351945481927
20
9.7970089028502354
30
0
10
12.582470146342757
20
10.075623079176468
30
0
10
13.689146664348371
20
10.250106219747689
30
0
10
14.507370494457554
20
10.163797028303922
30
0
10
15.105562639039139
20
9.8582974074750052
30
0
10
15.596219896883783
20
9.4526309078474231
30
0
10
16.066047105809222
20
9.0498613575491422
30
0
10
16.409634298812716
20
8.7138679171368416
30
0
10
16.620336626745178
20
8.4215123343460085
30
0
10
16.734225801945911
20
8.2021696822756205
30
0
10
16.784524359223063
20
8.0863870797482367
30
0
0
LINE
5
117
100
AcDbEntity
8
0
100
AcDbLine
10
14.476265453120426
20
4.0218361256424098
30
0
11
6.3829963418113582
21
-2.8539747724407749
31
0
0
LINE
5
118
100
AcDbEntity
8
0
100
AcDbLine
10
4.905290620011403
20
-2.6492701428296224
30
0
11
-1.6996157475938167
21
7.188807173952978
31
0
0
SPLINE
5
119
100
AcDbEntity
8
0
100
AcDbSpline
70
4
71
5
72
21
73
15
74
0
42
0.000000001
43
0.0000000001
44
0.0000000001
40
0
40
0
40
0
40
0
40
0
40
0
40
0.10000000000000001
40
0.20000000000000001
40
0.30000000000000004
40
0.40000000000000002
40
0.5
40
0.59999999999999998
40
0.69999999999999996
40
0.79999999999999993
40
0.89999999999999991
40
1
40
1
40
1
40
1
40
1
40
1
41
1
41
1
41
1
41
1
41
1
41
1
41
1
41
1
41
1
41
1
41
1
41
1
41
1
41
1
41
1
10
-1.6936122362705675
20
10.765072246382356
30
0
10
-1.7289585754027113
20
10.68321938228333
30
0
10
-1.796620499406147
20
10.520402204178437
30
0
10
-1.8890215945209485
20
10.278841948952275
30
0
10
-1.9937362373997238
20
9.9621815344503482
30
0
10
-2.0916874423144622
20
9.5760139108041251
30
0
10
-2.153603673312952
20
9.2004109442250055
30
0
10
-2.176303401873561
20
8.8363053884818736
30
0
10
-2.1576327713573202
20
8.4843287066851953
30
0
10
-2.0986445934535807
20
8.1441722377403742
30
0
10
-2.0021437659808541
20
7.8150136476653698
30
0
10
-1.8972732224389897
20
7.5597989726707038
30
0
10
-1.8040275178747021
20
7.3726662516052066
30
0
10
-1.7354831095042356
20
7.2497817565361498
30
0
10
-1.6996157475938167
20
7.188807173952978
30
0
0
SPLINE
5
120
100
AcDbEntity
8
0
100
AcDbSpline
70
4
71
5
72
26
73
20
74
0
42
0.000000001
43
0.0000000001
44
0.0000000001
40
0
40
0
40
0
40
0
40
0
40
0
40
0.066666666666666666
40
0.13333333333333333
40
0.20000000000000001
40
0.26666666666666666
40
0.33333333333333331
40
0.39999999999999997
40
0.46666666666666662
40
0.53333333333333333
40
0.59999999999999998
40
0.66666666666666663
40
0.73333333333333328
40
0.79999999999999993
40
0.86666666666666659
40
0.93333333333333324
40
1
40
1
40
1
40
1
40
1
40
1
41
1
41
1
41
1
41
1
41
1
41
1
41
1
41
1
41
1
41
1
41
1
41
1
41
1
41
1
41
1
41
1
41
1
41
1
41
1
41
1
10
-15.742207100546628
20
7.4252857109962811
30
0
10
-15.692027162226056
20
7.4838655328028283
30
0
10
-15.565575237249558
20
7.5932066149444388
30
0
10
-15.297442560403201
20
7.7337223203917294
30
0
10
-14.771832099739212
20
7.8718840108552772
30
0
10
-13.788720468670228
20
7.953794106302797
30
0
10
-12.498239871525424
20
7.9506356479870171
30
0
10
-10.985025414522811
20
7.8821702596097971
30
0
10
-9.5950880479142011
20
7.8255655766987351
30
0
10
-8.5206182767623844
20
7.8207389056250856
30
0
10
-7.7348084840172513
20
7.8618534413086314
30
0
10
-7.1240887555839336
20
7.9336677109541665
30
0
10
-6.5289596168876649
20
8.0264587639323999
30
0
10
-5.8316727892426448
20
8.1646656471251973
30
0
10
-4.9896133147404536
20
8.4146457039172375
30
0
10
-4.0034876498978731
20
8.8610896087512696
30
0
10
-3.1208206800721983
20
9.4444642140107664
30
0
10
-2.4202211083435219
20
10.039868699096591
30
0
10
-1.9382927035466655
20
10.510975964071514
30
0
10
-1.6936122362705675
20
10.765072246382356
30
0
0
SPLINE
5
121
100
AcDbEntity
8
0
100
AcDbSpline
70
4
71
5
72
26
73
20
74
0
42
0.000000001
43
0.0000000001
44
0.0000000001
40
0.015195401124613711
40
0.015195401124613711
40
0.015195401124613711
40
0.015195401124613711
40
0.015195401124613711
40
0.015195401124613711
40
0.066666666666666666
40
0.13333333333333333
40
0.20000000000000001
40
0.26666666666666666
40
0.33333333333333331
40
0.39999999999999997
40
0.46666666666666662
40
0.53333333333333333
40
0.59999999999999998
40
0.66666666666666663
40
0.73333333333333328
40
0.79999999999999993
40
0.86666666666666659
40
0.93333333333333324
40
0.97073594473110092
40
0.97073594473110092
40
0.97073594473110092
40
0.97073594473110092
40
0.97073594473110092
40
0.97073594473110092
41
1
41
1
41
1
41
1
41
1
41
1
41
1
41
1
41
1
41
1
41
1
41
1
41
1
41
1
41
1
41
1
41
1
41
1
41
1
41
1
10
-15.745024197628366
20
7.1684254709201074
30
0
10
-15.689139979918547
20
7.1002136537188516
30
0
10
-15.559699476560931
20
6.9487670628873843
30
0
10
-15.352992204882321
20
6.7302415066427246
30
0
10
-15.062619931178425
20
6.4722624370582436
30
0
10
-14.678221024162415
20
6.2141872116320949
30
0
10
-14.252273046434588
20
6.0180235390960712
30
0
10
-13.795218974627685
20
5.8899635467177003
30
0
10
-13.294302136819528
20
5.8167358156319846
30
0
10
-12.734191948916084
20
5.7809050747069382
30
0
10
-12.099549164783623
20
5.7638973982915598
30
0
10
-11.377345527257265
20
5.7485745370642309
30
0
10
-10.560327946781701
20
5.7225083542535984
30
0
10
-9.646424662534578
20
5.677953710613501
30
0
10
-8.6365118692705458
20
5.6104195506744405
30
0
10
-7.6299846140184062
20
5.5259693019532365
30
0
10
-6.7866926882216339
20
5.4438014752167563
30
0
10
-6.1511462272979394
20
5.3763696142058182
30
0
10
-5.7530402258629962
20
5.3321862040675319
30
0
10
-5.6085782273211287
20
5.3159091469288144
30
0
0
LINE
5
122
100
AcDbEntity
8
0
100
AcDbLine
10
-4.6750334279238217
20
4.8029231902710805
30
0
11
4.3401821876154028
21
-6.3894363324221786
31
0
0
LINE
5
123
100
AcDbEntity
8
0
100
AcDbLine
10
5.7138538161149564
20
-6.5659507733965654
30
0
11
19.977971157053645
21
3.9907528093245781
31
0
0
LINE
5
124
100
AcDbEntity
8
0
100
AcDbLine
10
20.295587850070966
20
3.8066980368190202
30
0
11
19.830464563418154
21
-0.15976999102571776
31
0
0
LINE
5
125
100
AcDbEntity
8
0
100
AcDbLine
10
20.486523969164139
20
-0.69189303222293264
30
0
11
24.979771693568541
21
0.82006613148890251
31
0
0
ARC
5
126
100
AcDbEntity
8
0
100
AcDbCircle
10
1.9912966000462451
20
-27.967312736134197
30
0
40
1.4999999999999991
210
0
220
0
230
1
100
AcDbArc
50
90.000000000000014
51
180
0
ARC
5
127
100
AcDbEntity
8
0
100
AcDbCircle
10
9.5467913230152774
20
-24.9673127361342
30
0
40
1.4999999999999991
210
0
220
0
230
1
100
AcDbArc
50
270.00000000000011
51
346.99118895926478
0
ARC
5
128
100
AcDbEntity
8
0
100
AcDbCircle
10
1.4912966000462502
20
-32.138473832010064
30
0
40
1.0000000000000051
210
0
220
0
230
1
100
AcDbArc
50
180
51
269.99999999999972
0
ARC
5
129
100
AcDbEntity
8
0
100
AcDbCircle
10
16.205040811097131
20
-32.638473832010071
30
0
40
0.49999999999999822
210
0
220
0
230
1
100
AcDbArc
50
-90
51
22.051062719076437
0
ARC
5
130
100
AcDbEntity
8
0
100
AcDbCircle
10
15.456943462915099
20
-25.742743367152112
30
0
40
0.99999999999999967
210
0
220
0
230
1
100
AcDbArc
50
167.05497275733615
51
180
0
ARC
5
131
100
AcDbEntity
8
0
100
AcDbCircle
10
15.456943462914953
20
-26.796219315430694
30
0
40
0.99999999999985656
210
0
220
0
230
1
100
AcDbArc
50
180
51
202.05106271907812
0
ARC
5
132
100
AcDbEntity
8
0
100
AcDbCircle
10
18.251957752675818
20
-10.011818362931139
30
0
40
0.1999999999999991
210
0
220
-0
230
1
100
AcDbArc
50
16.096433636489881
51
167.0549727573368
0
ARC
5
133
100
AcDbEntity
8
0
100
AcDbCircle
10
16.16959943796461
20
-4.7415519612194483
30
0
40
0.40000000000000097
210
0
220
0
230
1
100
AcDbArc
50
151.22021345378175
51
166.99118895926503
0
ARC
5
134
100
AcDbEntity
8
0
100
AcDbCircle
10
25.123287544008729
20
0.39356501698575219
30
0
40
0.44999999999999979
210
0
220
-0
230
1
100
AcDbArc
50
46.533009557767734
51
108.59787222396312
0
ARC
5
135
100
AcDbEntity
8
0
100
AcDbCircle
10
20.096948910190431
20
3.8299912024076201
30
0
40
0.20000000000000012
210
-0
220
0
230
1
100
AcDbArc
50
-6.6881789824755424
51
126.50470286361674
0
ARC
5
136
100
AcDbEntity
8
0
100
AcDbCircle
10
20.327061913119486
20
-0.21800290499721064
30
0
40
0.49999999999999944
210
0
220
0
230
1
100
AcDbArc
50
173.31182101752526
51
288.59787222396307
0
ARC
5
137
100
AcDbEntity
8
0
100
AcDbCircle
10
5.1189650504310507
20
-5.7621427388117663
30
0
40
1.0000000000000004
210
0
220
0
230
1
100
AcDbArc
50
218.85072983839297
51
306.50470286361531
0
ARC
5
138
100
AcDbEntity
8
0
100
AcDbCircle
10
5.7355375201686769
20
-2.0918743366207471
30
0
40
1.0000000000000016
210
0
220
0
230
1
100
AcDbArc
50
213.87589102421785
51
310.35028078866708
0
ARC
5
139
100
AcDbEntity
8
0
100
AcDbCircle
10
-5.7653294358657279
20
3.9247121592165035
30
0
40
1.3999999999999999
210
0
220
-0
230
1
100
AcDbArc
50
38.850729838393015
51
83.571389775613994
0
ARC
5
140
100
AcDbEntity
8
0
100
AcDbCircle
10
-15.590315637790882
20
7.2951742835891551
30
0
40
0.20000000000000032
210
0
220
0
230
1
100
AcDbArc
50
139.41637920132635
51
219.32689611153839
0
ARC
5
141
100
AcDbEntity
8
0
100
AcDbCircle
10
15.408738133156099
20
7.4887147111678356
30
0
40
1.5000000000000244
210
-0
220
0
230
1
100
AcDbArc
50
-16.50675466134091
51
23.48120660597937
0
ARC
5
142
100
AcDbEntity
8
0
100
AcDbCircle
10
8.3254066475149617
20
11.261790265932657
30
0
40
9.5000000000000089
210
0
220
0
230
1
100
AcDbArc
50
310.35028078866708
51
333.76663845315005
0
CIRCLE
5
143
100
AcDbEntity
8
0
100
AcDbCircle
10
4.2244084695068729
20
18.791208927085314
30
0
40
1.6499999999999999
210
0
220
0
230
1
0
ENDSEC
0
SECTION
2
OBJECTS
0
DICTIONARY
5
C
100
AcDbDictionary
3
ACAD_GROUP
350
D
3
ACAD_MLINESTYLE
350
17
0
DICTIONARY
5
D
100
AcDbDictionary
0
DICTIONARY
5
1A
330
C
100
AcDbDictionary
0
DICTIONARY
5
17
100
AcDbDictionary
0
ENDSEC
0
EOF
