0
SECTION
2
HEADER
9
$INSUNITS
70
4
9
$ACADVER
1
AC1014
9
$HANDSEED
5
FFFF
0
ENDSEC
0
SECTION
2
TABLES
0
TABLE
2
VPORT
5
8
100
AcDbSymbolTable
0
ENDTAB
0
TABLE
2
LTYPE
5
5
100
AcDbSymbolTable
0
LTYPE
5
14
100
AcDbSymbolTableRecord
100
AcDbLinetypeTableRecord
2
BYBLOCK
70
0
0
LTYPE
5
15
100
AcDbSymbolTableRecord
100
AcDbLinetypeTableRecord
2
BYLAYER
70
0
0
ENDTAB
0
TABLE
2
LAYER
5
2
100
AcDbSymbolTable
70
2
0
LAYER
5
50
100
AcDbSymbolTableRecord
100
AcDbLayerTableRecord
2
0
70
0
6
CONTINUOUS
0
ENDTAB
0
TABLE
2
STYLE
5
3
100
AcDbSymbolTable
70
1
0
STYLE
5
11
100
AcDbSymbolTableRecord
100
AcDbTextStyleTableRecord
2
STANDARD
70
0
0
ENDTAB
0
TABLE
2
VIEW
5
6
100
AcDbSymbolTable
70
0
0
ENDTAB
0
TABLE
2
UCS
5
7
100
AcDbSymbolTable
70
0
0
ENDTAB
0
TABLE
2
APPID
5
9
100
AcDbSymbolTable
70
2
0
APPID
5
12
100
AcDbSymbolTableRecord
100
AcDbRegAppTableRecord
2
ACAD
70
0
0
ENDTAB
0
TABLE
2
DIMSTYLE
5
A
100
AcDbSymbolTable
70
1
0
ENDTAB
0
TABLE
2
BLOCK_RECORD
5
1
100
AcDbSymbolTable
70
1
0
BLOCK_RECORD
5
1F
100
AcDbSymbolTableRecord
100
AcDbBlockTableRecord
2
*MODEL_SPACE
0
BLOCK_RECORD
5
1B
100
AcDbSymbolTableRecord
100
AcDbBlockTableRecord
2
*PAPER_SPACE
0
ENDTAB
0
ENDSEC
0
SECTION
2
BLOCKS
0
BLOCK
5
20
100
AcDbEntity
100
AcDbBlockBegin
2
*MODEL_SPACE
0
ENDBLK
5
21
100
AcDbEntity
100
AcDbBlockEnd
0
BLOCK
5
1C
100
AcDbEntity
100
AcDbBlockBegin
2
*PAPER_SPACE
0
ENDBLK
5
1D
100
AcDbEntity
100
AcDbBlockEnd
0
ENDSEC
0
SECTION
2
ENTITIES
0
SPLINE
5
100
100
AcDbEntity
8
0
100
AcDbSpline
70
4
71
5
72
26
73
20
74
0
42
0.000000001
43
0.0000000001
44
0.0000000001
40
0
40
0
40
0
40
0
40
0
40
0
40
0.066666666666666666
40
0.13333333333333333
40
0.20000000000000001
40
0.26666666666666666
40
0.33333333333333331
40
0.39999999999999997
40
0.46666666666666662
40
0.53333333333333333
40
0.59999999999999998
40
0.66666666666666663
40
0.73333333333333328
40
0.79999999999999993
40
0.86666666666666659
40
0.93333333333333324
40
0.98303298096112202
40
0.98303298096112202
40
0.98303298096112202
40
0.98303298096112202
40
0.98303298096112202
40
0.98303298096112202
41
1
41
1
41
1
41
1
41
1
41
1
41
1
41
1
41
1
41
1
41
1
41
1
41
1
41
1
41
1
41
1
41
1
41
1
41
1
41
1
10
-17.00000025331974
20
5.000000074505806
30
0
10
-16.727491055520417
20
4.4969658858983168
30
0
10
-16.189859197444591
20
3.5006797221308092
30
0
10
-15.405570256346881
20
2.0355965805444733
30
0
10
-14.404498264452331
20
0.14127590644808091
30
0
10
-13.227958297530478
20
-2.1258595739366997
30
0
10
-12.124064990359653
20
-4.2899896326024374
30
0
10
-11.085476212904045
20
-6.3504129563882463
30
0
10
-10.097382600323648
20
-8.3094345604077127
30
0
10
-9.1333155225753142
20
-10.175054934688774
30
0
10
-8.156419206954034
20
-11.960725593672791
30
0
10
-7.1262234031654401
20
-13.682151972224965
30
0
10
-6.0039251823717956
20
-15.355205032119517
30
0
10
-4.7581642562318223
20
-16.993710537480403
30
0
10
-3.3717497042788107
20
-18.60725551050335
30
0
10
-1.9159690537878307
20
-20.120638625452468
30
0
10
-0.66306148466961901
20
-21.304056809134956
30
0
10
0.31046222462310091
20
-22.166020752857989
30
0
10
0.95153358200448701
20
-22.711834082758532
30
0
10
1.2293660541071563
20
-22.944549429027099
30
0
0
LINE
5
101
100
AcDbEntity
8
0
100
AcDbLine
10
2.3209655973998271
20
-23.341318660098118
30
0
11
8.707826428640324
21
-23.341318660098143
31
0
0
SPLINE
5
102
100
AcDbEntity
8
0
100
AcDbSpline
70
4
71
5
72
21
73
15
74
0
42
0.000000001
43
0.0000000001
44
0.0000000001
40
0.020631723140740271
40
0.020631723140740271
40
0.020631723140740271
40
0.020631723140740271
40
0.020631723140740271
40
0.020631723140740271
40
0.10000000000000001
40
0.20000000000000001
40
0.30000000000000004
40
0.40000000000000002
40
0.5
40
0.59999999999999998
40
0.69999999999999996
40
0.79999999999999993
40
0.89999999999999991
40
0.9079531742607001
40
0.9079531742607001
40
0.9079531742607001
40
0.9079531742607001
40
0.9079531742607001
40
0.9079531742607001
41
1
41
1
41
1
41
1
41
1
41
1
41
1
41
1
41
1
41
1
41
1
41
1
41
1
41
1
41
1
10
8.896181458250064
20
-23.388441368648675
30
0
10
8.9644709481989118
20
-23.424892195076637
30
0
10
9.1150570125220334
20
-23.508119521297751
30
0
10
9.3363803494692057
20
-23.640748105655824
30
0
10
9.6084791118567328
20
-23.827310663541184
30
0
10
9.9003562520939354
20
-24.074845661549812
30
0
10
10.142285349237483
20
-24.347228555637436
30
0
10
10.316154135639312
20
-24.635065832016082
30
0
10
10.418159190163623
20
-24.939221129467604
30
0
10
10.450049756125875
20
-25.259297249170331
30
0
10
10.422816656582123
20
-25.532541447182197
30
0
10
10.37371429463186
20
-25.745287980005838
30
0
10
10.328102749773107
20
-25.891778361399005
30
0
10
10.301120311228878
20
-25.968575156151374
30
0
10
10.299114533521808
20
-25.974237031818262
30
0
0
LINE
5
103
100
AcDbEntity
8
0
100
AcDbLine
10
9.827814808082767
20
-26.307274255125115
30
0
11
-3.5433001615460724
21
-26.307274255125115
31
0
0
SPLINE
5
104
100
AcDbEntity
8
0
100
AcDbSpline
70
4
71
5
72
91
73
85
74
0
42
0.000000001
43
0.0000000001
44
0.0000000001
40
0
40
0
40
0
40
0
40
0
40
0
40
0.012500000000000001
40
0.025000000000000001
40
0.037500000000000006
40
0.050000000000000003
40
0.0625
40
0.074999999999999997
40
0.087499999999999994
40
0.099999999999999992
40
0.11249999999999999
40
0.12499999999999999
40
0.13749999999999998
40
0.14999999999999999
40
0.16250000000000001
40
0.17500000000000002
40
0.18750000000000003
40
0.20000000000000004
40
0.21250000000000005
40
0.22500000000000006
40
0.23750000000000007
40
0.25000000000000006
40
0.26250000000000007
40
0.27500000000000008
40
0.28750000000000009
40
0.3000000000000001
40
0.31250000000000011
40
0.32500000000000012
40
0.33750000000000013
40
0.35000000000000014
40
0.36250000000000016
40
0.37500000000000017
40
0.38750000000000018
40
0.40000000000000019
40
0.4125000000000002
40
0.42500000000000021
40
0.43750000000000022
40
0.45000000000000023
40
0.46250000000000024
40
0.47500000000000026
40
0.48750000000000027
40
0.50000000000000022
40
0.51250000000000018
40
0.52500000000000013
40
0.53750000000000009
40
0.55000000000000004
40
0.5625
40
0.57499999999999996
40
0.58749999999999991
40
0.59999999999999987
40
0.61249999999999982
40
0.62499999999999978
40
0.63749999999999973
40
0.64999999999999969
40
0.66249999999999964
40
0.6749999999999996
40
0.68749999999999956
40
0.69999999999999951
40
0.71249999999999947
40
0.72499999999999942
40
0.73749999999999938
40
0.74999999999999933
40
0.76249999999999929
40
0.77499999999999925
40
0.7874999999999992
40
0.79999999999999916
40
0.81249999999999911
40
0.82499999999999907
40
0.83749999999999902
40
0.84999999999999898
40
0.86249999999999893
40
0.87499999999999889
40
0.88749999999999885
40
0.8999999999999988
40
0.91249999999999876
40
0.92499999999999871
40
0.93749999999999867
40
0.94999999999999862
40
0.96249999999999858
40
0.97499999999999853
40
0.98749999999999849
40
1
40
1
40
1
40
1
40
1
40
1
41
1
41
1
41
1
41
1
41
1
41
1
41
1
41
1
41
1
41
1
41
1
41
1
41
1
41
1
41
1
41
1
41
1
41
1
41
1
41
1
41
1
41
1
41
1
41
1
41
1
41
1
41
1
41
1
41
1
41
1
41
1
41
1
41
1
41
1
41
1
41
1
41
1
41
1
41
1
41
1
41
1
41
1
41
1
41
1
41
1
41
1
41
1
41
1
41
1
41
1
41
1
41
1
41
1
41
1
41
1
41
1
41
1
41
1
41
1
41
1
41
1
41
1
41
1
41
1
41
1
41
1
41
1
41
1
41
1
41
1
41
1
41
1
41
1
41
1
41
1
41
1
41
1
41
1
41
1
41
1
41
1
41
1
41
1
41
1
41
1
10
-3.5433001615460724
20
-26.307274255125115
30
0
10
-3.5477863055843333
20
-26.200896553495827
30
0
10
-3.5364780555606465
20
-25.994497253828403
30
0
10
-3.4585613745272719
20
-25.703985917899313
30
0
10
-3.2337170237750223
20
-25.354653919640366
30
0
10
-2.8039414004855261
20
-24.970221847645536
30
0
10
-2.4054175094494021
20
-24.600968972487479
30
0
10
-2.2685394054019339
20
-24.193774519392079
30
0
10
-2.5076864011250999
20
-23.702150876223534
30
0
10
-3.0847697229966249
20
-23.093192798602718
30
0
10
-3.8969742797394917
20
-22.340548975895125
30
0
10
-4.8452993600980703
20
-21.419563016737019
30
0
10
-5.872385550092849
20
-20.305617974409614
30
0
10
-6.9443206796211623
20
-18.978447735892971
30
0
10
-8.0479343023795273
20
-17.42478960648706
30
0
10
-9.1817189080767498
20
-15.641757200580123
30
0
10
-10.349587630587578
20
-13.639842916457726
30
0
10
-11.553209370774626
20
-11.446263919843549
30
0
10
-12.785450094639817
20
-9.1077792113826934
30
0
10
-14.022024531100243
20
-6.6948112526610357
30
0
10
-15.226700622794231
20
-4.2946817549416254
30
0
10
-16.358794094293224
20
-2.0029703822244533
30
0
10
-17.379779488252126
20
0.084390360921119456
30
0
10
-18.260452255931106
20
1.8794834130193474
30
0
10
-18.987448323411929
20
3.3102223653033165
30
0
10
-19.571017587979711
20
4.329258712401657
30
0
10
-20.050037780843834
20
4.9204890874108118
30
0
10
-20.503698432998444
20
5.1113809007565925
30
0
10
-21.041811348600223
20
4.9666774272388015
30
0
10
-21.755296832350695
20
4.5473986466936909
30
0
10
-22.675358684524362
20
3.8774320407149538
30
0
10
-23.78530602451605
20
2.9537467106781987
30
0
10
-25.033973909570353
20
1.7580305999264123
30
0
10
-26.348257932461635
20
0.26752434361455807
30
0
10
-27.646369689721595
20
-1.5334012264105514
30
0
10
-28.849907750023682
20
-3.6429285468548951
30
0
10
-29.898544098133002
20
-6.0286002213590457
30
0
10
-30.755953243991321
20
-8.6237471174663565
30
0
10
-31.403778253359715
20
-11.337082378863986
30
0
10
-31.838548734031633
20
-14.059031189469193
30
0
10
-32.067439992320914
20
-16.669360673595584
30
0
10
-32.104499473756704
20
-19.044237528751928
30
0
10
-31.9667801415696
20
-21.063530027083303
30
0
10
-31.67029081443555
20
-22.617997949307892
30
0
10
-31.226558816593815
20
-23.61656342582295
30
0
10
-30.637646850030997
20
-23.993515670882097
30
0
10
-29.895794714017065
20
-23.715891464914236
30
0
10
-28.997422050266437
20
-22.79059317331739
30
0
10
-27.955370171793724
20
-21.272288290836066
30
0
10
-26.810175803775458
20
-19.269252317577489
30
0
10
-25.619606643538507
20
-16.92632672655068
30
0
10
-24.449943880420591
20
-14.409573495123391
30
0
10
-23.366618326342717
20
-11.890336717033422
30
0
10
-22.425089221125241
20
-9.5295136704395862
30
0
10
-21.661690427717982
20
-7.4618556923647228
30
0
10
-21.084286578640317
20
-5.7799400035314026
30
0
10
-20.663415846633487
20
-4.5189232469787974
30
0
10
-20.322124943085015
20
-3.6392487634770454
30
0
10
-19.930005699560709
20
-3.0155431204205212
30
0
10
-19.377125315997816
20
-2.5245613915392124
30
0
10
-18.625053011071945
20
-2.1089256332493491
30
0
10
-17.802614085261041
20
-1.8854398315245271
30
0
10
-17.119219244196366
20
-2.0770230086520507
30
0
10
-16.671385676499696
20
-2.8522420293427135
30
0
10
-16.261009028714447
20
-4.1628704300930988
30
0
10
-15.834907451900149
20
-5.8501147124111519
30
0
10
-15.382327876804048
20
-7.6935853107854548
30
0
10
-14.938869565132631
20
-9.4610673974586241
30
0
10
-14.547826326790425
20
-10.961275022787923
30
0
10
-14.242682729710181
20
-12.089212702092862
30
0
10
-14.01326044511087
20
-12.889629619550945
30
0
10
-13.802923995743319
20
-13.562558802082755
30
0
10
-13.556919603054791
20
-14.34708862345952
30
0
10
-13.263578729568675
20
-15.437740989967928
30
0
10
-12.994283140022961
20
-16.871234678748447
30
0
10
-12.75575278142237
20
-18.576550575073977
30
0
10
-12.533672755727494
20
-20.412359397436081
30
0
10
-12.292741171614081
20
-22.202633949642731
30
0
10
-11.994385792911572
20
-23.774398055380949
30
0
10
-11.606070053540645
20
-24.991773993668044
30
0
10
-11.116276348284357
20
-25.798290740879644
30
0
10
-10.655810780449501
20
-26.147767050844337
30
0
10
-10.282041931085768
20
-26.274903650615112
30
0
10
-10.022040729694234
20
-26.305512076266787
30
0
10
-9.8893332748384992
20
-26.307274255125115
30
0
0
LINE
5
105
100
AcDbEntity
8
0
100
AcDbLine
10
-9.8893332748384992
20
-26.307274255125115
30
0
11
-1.4054467844994556
21
-26.307274255125115
31
0
0
LINE
5
106
100
AcDbEntity
8
0
100
AcDbLine
10
0.094553215500537344
20
-33.178792758804668
30
0
11
-16.396864739988352
21
-33.178792758804668
31
0
0
LINE
5
107
100
AcDbEntity
8
0
100
AcDbLine
10
-16.396864739988352
20
-33.178792758804668
30
0
11
-14.416274004008333
21
-26.307268683383647
31
0
0
ARC
5
108
100
AcDbEntity
8
0
100
AcDbCircle
10
-16.309444433154013
20
-25.761597043083665
30
0
40
1.9702415620474838
210
0
220
0
230
1
100
AcDbArc
50
-16.078655890762906
51
16.079085146912892
0
LINE
5
109
100
AcDbEntity
8
0
100
AcDbLine
10
-14.416278092196915
20
-25.215911219292696
30
0
11
-18.658464756227772
21
-8.241411577187657
31
0
0
LINE
5
110
100
AcDbEntity
8
0
100
AcDbLine
10
-18.658464756227772
20
-8.241411577187657
30
0
11
-26.13168071422686
21
-31.720915387124325
31
0
0
LINE
5
111
100
AcDbEntity
8
0
100
AcDbLine
10
-28.037474462296672
20
-33.114326407816222
30
0
11
-33.599324537480463
21
-33.114326407816222
31
0
0
SPLINE
5
112
100
AcDbEntity
8
0
100
AcDbSpline
70
4
71
5
72
81
73
75
74
0
42
0.000000001
43
0.0000000001
44
0.0000000001
40
0
40
0
40
0
40
0
40
0
40
0
40
0.014285714285714285
40
0.028571428571428571
40
0.042857142857142858
40
0.057142857142857141
40
0.071428571428571425
40
0.085714285714285715
40
0.10000000000000001
40
0.1142857142857143
40
0.12857142857142859
40
0.14285714285714288
40
0.15714285714285717
40
0.17142857142857146
40
0.18571428571428575
40
0.20000000000000004
40
0.21428571428571433
40
0.22857142857142862
40
0.24285714285714291
40
0.25714285714285717
40
0.27142857142857146
40
0.28571428571428575
40
0.30000000000000004
40
0.31428571428571433
40
0.32857142857142863
40
0.34285714285714292
40
0.35714285714285721
40
0.3714285714285715
40
0.38571428571428579
40
0.40000000000000008
40
0.41428571428571437
40
0.42857142857142866
40
0.44285714285714295
40
0.45714285714285724
40
0.47142857142857153
40
0.48571428571428582
40
0.50000000000000011
40
0.51428571428571435
40
0.52857142857142858
40
0.54285714285714282
40
0.55714285714285705
40
0.57142857142857129
40
0.58571428571428552
40
0.59999999999999976
40
0.61428571428571399
40
0.62857142857142823
40
0.64285714285714246
40
0.6571428571428567
40
0.67142857142857093
40
0.68571428571428517
40
0.6999999999999994
40
0.71428571428571364
40
0.72857142857142787
40
0.74285714285714211
40
0.75714285714285634
40
0.77142857142857058
40
0.78571428571428481
40
0.79999999999999905
40
0.81428571428571328
40
0.82857142857142752
40
0.84285714285714175
40
0.85714285714285599
40
0.87142857142857022
40
0.88571428571428445
40
0.89999999999999869
40
0.91428571428571292
40
0.92857142857142716
40
0.94285714285714139
40
0.95714285714285563
40
0.97142857142856986
40
0.9857142857142841
40
1
40
1
40
1
40
1
40
1
40
1
41
1
41
1
41
1
41
1
41
1
41
1
41
1
41
1
41
1
41
1
41
1
41
1
41
1
41
1
41
1
41
1
41
1
41
1
41
1
41
1
41
1
41
1
41
1
41
1
41
1
41
1
41
1
41
1
41
1
41
1
41
1
41
1
41
1
41
1
41
1
41
1
41
1
41
1
41
1
41
1
41
1
41
1
41
1
41
1
41
1
41
1
41
1
41
1
41
1
41
1
41
1
41
1
41
1
41
1
41
1
41
1
41
1
41
1
41
1
41
1
41
1
41
1
41
1
41
1
41
1
41
1
41
1
41
1
41
1
41
1
41
1
41
1
41
1
41
1
41
1
10
-35.525235198826152
20
-31.653648319586015
30
0
10
-35.590185792072347
20
-31.441374542644578
30
0
10
-35.731723832256364
20
-30.976249919945495
30
0
10
-35.978816206233184
20
-30.157100838971651
30
0
10
-36.353673794262974
20
-28.879978859346359
30
0
10
-36.771574224825414
20
-27.276147912667938
30
0
10
-37.032478114569216
20
-25.920635687503541
30
0
10
-37.077534653650261
20
-24.948952300729101
30
0
10
-37.054651531422188
20
-24.017983575767694
30
0
10
-37.11870223954255
20
-22.71892849040189
30
0
10
-37.251580142041355
20
-20.997304157298295
30
0
10
-37.390323515246841
20
-18.908658209090618
30
0
10
-37.440441635827447
20
-16.625852983725316
30
0
10
-37.334269992513839
20
-14.338485610062667
30
0
10
-37.078258491363869
20
-12.20169097315625
30
0
10
-36.790189371934886
20
-10.254860935061654
30
0
10
-36.467700157439616
20
-8.4764958481743751
30
0
10
-36.066053850411379
20
-6.8009632036734153
30
0
10
-35.502322002989274
20
-5.1424747967652715
30
0
10
-34.688626537575196
20
-3.4158997282779637
30
0
10
-33.553717133962579
20
-1.559730467514354
30
0
10
-32.067767594896893
20
0.44376698402412262
30
0
10
-30.270596889866113
20
2.5421178678298832
30
0
10
-28.258911194360607
20
4.6306101294560573
30
0
10
-26.164053421239053
20
6.5798557894982892
30
0
10
-24.133222419786804
20
8.2597897278556598
30
0
10
-22.309019921608069
20
9.5656515574882643
30
0
10
-20.810283465882051
20
10.441991881115531
30
0
10
-19.711024063749335
20
10.910266666377943
30
0
10
-19.023219966104705
20
11.088669798619309
30
0
10
-18.669661322336733
20
11.232551909528299
30
0
10
-18.524584961658444
20
11.618961238194263
30
0
10
-18.486122610827717
20
12.335107756779609
30
0
10
-18.487993749308739
20
13.304426401670481
30
0
10
-18.489158642146023
20
14.401448168650235
30
0
10
-18.470660815305425
20
15.549957083527987
30
0
10
-18.423790675462026
20
16.720701508436136
30
0
10
-18.337610489527279
20
17.905396939430538
30
0
10
-18.188254137187872
20
19.101156971811399
30
0
10
-17.923452892579984
20
20.28646136328382
30
0
10
-17.469706476675597
20
21.421722578354032
30
0
10
-16.751072558504113
20
22.461280539794419
30
0
10
-15.703967617606409
20
23.361057859350538
30
0
10
-14.294421173255245
20
24.089883948040608
30
0
10
-12.531613430457089
20
24.633677802469499
30
0
10
-10.467100860117544
20
24.984152500079784
30
0
10
-8.2008991700510041
20
25.125650638572807
30
0
10
-5.8757130907504163
20
25.031998467328449
30
0
10
-3.6973661865363026
20
24.637860654910455
30
0
10
-1.8946932146419206
20
23.870703300308769
30
0
10
-0.83143454092193714
20
22.529493302990893
30
0
10
-0.4583780610133612
20
20.840138788149272
30
0
10
-0.47860018458919118
20
19.232062708872725
30
0
10
-0.56436420851624436
20
18.039479713840695
30
0
10
-0.4921947696838852
20
17.351799251464044
30
0
10
-0.45376432525478183
20
16.510645921246937
30
0
10
-0.56467445832562224
20
15.310589772937746
30
0
10
-0.86831262610309878
20
13.844974703742954
30
0
10
-1.362890992173154
20
12.349893534792692
30
0
10
-2.0137857994232879
20
11.059109335768715
30
0
10
-2.7727129345982364
20
10.058941783599009
30
0
10
-3.5954160513843378
20
9.3384352833219992
30
0
10
-4.4625606088412804
20
8.8347761224038841
30
0
10
-5.3953155892662146
20
8.4768623770243234
30
0
10
-6.4834058351342776
20
8.2386975742423072
30
0
10
-7.8365089291835943
20
8.1208820891799007
30
0
10
-9.5301866256819583
20
8.1209576595894752
30
0
10
-11.531904142153117
20
8.1974251761609391
30
0
10
-13.68427052366475
20
8.2592740622401344
30
0
10
-15.540194172587027
20
8.0868436037094256
30
0
10
-16.817259720330245
20
7.5417365993539187
30
0
10
-17.269483401212401
20
6.7553309429212929
30
0
10
-17.267307476250298
20
5.9582016322500397
30
0
10
-17.114358519585267
20
5.3347432813063573
30
0
10
-17.000000253319744
20
5.0000000745058069
30
0
0
LINE
5
113
100
AcDbEntity
8
0
100
AcDbLine
10
0.094553215500543519
20
-27.807274255125115
30
0
11
0.094553215500537344
21
-33.178792758804668
31
0
0
ARC
5
114
100
AcDbEntity
8
0
100
AcDbCircle
10
-1.4054467844994567
20
-27.807274255125115
30
0
40
1.5000000000000002
210
0
220
0
230
1
100
AcDbArc
50
0
51
89.999999999999972
0
ARC
5
115
100
AcDbEntity
8
0
100
AcDbCircle
10
9.8278148080827687
20
-25.807274255125115
30
0
40
0.50000000000000266
210
0
220
0
230
1
100
AcDbArc
50
269.99999999999983
51
340.49278535296793
0
ARC
5
116
100
AcDbEntity
8
0
100
AcDbCircle
10
8.707826428640324
20
-23.741318660098145
30
0
40
0.4000000000000018
210
0
220
-0
230
1
100
AcDbArc
50
61.908073680356416
51
90
0
ARC
5
117
100
AcDbEntity
8
0
100
AcDbCircle
10
2.3209655973998284
20
-21.641318660098115
30
0
40
1.7000000000000011
210
0
220
0
230
1
100
AcDbArc
50
230.0501111168935
51
269.99999999999994
0
ARC
5
118
100
AcDbEntity
8
0
100
AcDbCircle
10
-28.037474462296675
20
-31.114326407816222
30
0
40
1.9999999999999973
210
0
220
0
230
1
100
AcDbArc
50
270.00000000000011
51
342.34441429409571
0
ARC
5
119
100
AcDbEntity
8
0
100
AcDbCircle
10
-33.599324537480463
20
-31.114326407816222
30
0
40
2.0000000000000009
210
0
220
0
230
1
100
AcDbArc
50
195.64409275357249
51
270
0
CIRCLE
5
120
100
AcDbEntity
8
0
100
AcDbCircle
10
-5.2563642486740658
20
18.623901173235065
30
0
40
1.6499999999999995
210
0
220
0
230
1
0
LINE
5
121
100
AcDbEntity
8
0
100
AcDbLine
10
-17.00000025331974
20
5.000000074505806
30
0
11
-19.345846937211174
21
3.906116324375156
31
0
0
ENDSEC
0
SECTION
2
OBJECTS
0
DICTIONARY
5
C
100
AcDbDictionary
3
ACAD_GROUP
350
D
3
ACAD_MLINESTYLE
350
17
0
DICTIONARY
5
D
100
AcDbDictionary
0
DICTIONARY
5
1A
330
C
100
AcDbDictionary
0
DICTIONARY
5
17
100
AcDbDictionary
0
ENDSEC
0
EOF
