0
SECTION
2
HEADER
9
$INSUNITS
70
4
9
$ACADVER
1
AC1014
9
$HANDSEED
5
FFFF
0
ENDSEC
0
SECTION
2
TABLES
0
TABLE
2
VPORT
5
8
100
AcDbSymbolTable
0
ENDTAB
0
TABLE
2
LTYPE
5
5
100
AcDbSymbolTable
0
LTYPE
5
14
100
AcDbSymbolTableRecord
100
AcDbLinetypeTableRecord
2
BYBLOCK
70
0
0
LTYPE
5
15
100
AcDbSymbolTableRecord
100
AcDbLinetypeTableRecord
2
BYLAYER
70
0
0
ENDTAB
0
TABLE
2
LAYER
5
2
100
AcDbSymbolTable
70
2
0
LAYER
5
50
100
AcDbSymbolTableRecord
100
AcDbLayerTableRecord
2
0
70
0
6
CONTINUOUS
0
ENDTAB
0
TABLE
2
STYLE
5
3
100
AcDbSymbolTable
70
1
0
STYLE
5
11
100
AcDbSymbolTableRecord
100
AcDbTextStyleTableRecord
2
STANDARD
70
0
0
ENDTAB
0
TABLE
2
VIEW
5
6
100
AcDbSymbolTable
70
0
0
ENDTAB
0
TABLE
2
UCS
5
7
100
AcDbSymbolTable
70
0
0
ENDTAB
0
TABLE
2
APPID
5
9
100
AcDbSymbolTable
70
2
0
APPID
5
12
100
AcDbSymbolTableRecord
100
AcDbRegAppTableRecord
2
ACAD
70
0
0
ENDTAB
0
TABLE
2
DIMSTYLE
5
A
100
AcDbSymbolTable
70
1
0
ENDTAB
0
TABLE
2
BLOCK_RECORD
5
1
100
AcDbSymbolTable
70
1
0
BLOCK_RECORD
5
1F
100
AcDbSymbolTableRecord
100
AcDbBlockTableRecord
2
*MODEL_SPACE
0
BLOCK_RECORD
5
1B
100
AcDbSymbolTableRecord
100
AcDbBlockTableRecord
2
*PAPER_SPACE
0
ENDTAB
0
ENDSEC
0
SECTION
2
BLOCKS
0
BLOCK
5
20
100
AcDbEntity
100
AcDbBlockBegin
2
*MODEL_SPACE
0
ENDBLK
5
21
100
AcDbEntity
100
AcDbBlockEnd
0
BLOCK
5
1C
100
AcDbEntity
100
AcDbBlockBegin
2
*PAPER_SPACE
0
ENDBLK
5
1D
100
AcDbEntity
100
AcDbBlockEnd
0
ENDSEC
0
SECTION
2
ENTITIES
0
SPLINE
5
100
100
AcDbEntity
8
0
100
AcDbSpline
70
4
71
5
72
21
73
15
74
0
42
0.000000001
43
0.0000000001
44
0.0000000001
40
0.050331937825495686
40
0.050331937825495686
40
0.050331937825495686
40
0.050331937825495686
40
0.050331937825495686
40
0.050331937825495686
40
0.10000000000000001
40
0.20000000000000001
40
0.30000000000000004
40
0.40000000000000002
40
0.5
40
0.59999999999999998
40
0.69999999999999996
40
0.79999999999999993
40
0.89999999999999991
40
0.93618552051076676
40
0.93618552051076676
40
0.93618552051076676
40
0.93618552051076676
40
0.93618552051076676
40
0.93618552051076676
41
1
41
1
41
1
41
1
41
1
41
1
41
1
41
1
41
1
41
1
41
1
41
1
41
1
41
1
41
1
10
-41.110427988298724
20
6.1343770451414308
30
0
10
-41.328441025776016
20
6.1592605605175041
30
0
10
-41.983689240347665
20
6.2318016615564922
30
0
10
-43.068133450213679
20
6.3404853771244039
30
0
10
-44.566464089727553
20
6.4633829573968606
30
0
10
-46.454306562100776
20
6.5655812998521004
30
0
10
-48.499060465265146
20
6.601302588391543
30
0
10
-50.484358916767242
20
6.5518624977671136
30
0
10
-52.406417266950164
20
6.4118400619428728
30
0
10
-54.266166293619833
20
6.1825684861948744
30
0
10
-55.837743931356066
20
5.9097754948381942
30
0
10
-57.018574803582055
20
5.6559128779712289
30
0
10
-57.833863006903712
20
5.4570818772336072
30
0
10
-58.299287114795831
20
5.3357397930562804
30
0
10
-58.42262497765303
20
5.3030272769339799
30
0
0
SPLINE
5
101
100
AcDbEntity
8
0
100
AcDbSpline
70
4
71
5
72
16
73
10
74
0
42
0.000000001
43
0.0000000001
44
0.0000000001
40
0.02213901409151426
40
0.02213901409151426
40
0.02213901409151426
40
0.02213901409151426
40
0.02213901409151426
40
0.02213901409151426
40
0.20000000000000001
40
0.40000000000000002
40
0.60000000000000009
40
0.80000000000000004
40
0.97245106209986421
40
0.97245106209986421
40
0.97245106209986421
40
0.97245106209986421
40
0.97245106209986421
40
0.97245106209986421
41
1
41
1
41
1
41
1
41
1
41
1
41
1
41
1
41
1
41
1
10
-59.821016595726405
20
3.9594663966981791
30
0
10
-60.336813462542118
20
2.2875731042432612
30
0
10
-61.432610337996238
20
-1.2643202162274061
30
0
10
-63.108407222092438
20
-6.6962135647119272
30
0
10
-65.364204114835744
20
-14.008106941207883
30
0
10
-68.120109095129266
20
-22.941040325594457
30
0
10
-70.360217208607082
20
-30.202080417527817
30
0
10
-72.020325313442783
20
-35.583120481448162
30
0
10
-73.100433409633837
20
-39.084160517355215
30
0
10
-73.600541497178895
20
-40.705200525248785
30
0
0
LINE
5
102
100
AcDbEntity
8
0
100
AcDbLine
10
-64.272372920274023
20
-41.283019946034429
30
0
11
-60.392913365860046
21
-28.136056070350818
31
0
0
LINE
5
103
100
AcDbEntity
8
0
100
AcDbLine
10
-56.556456533016103
20
-25.268133351160273
30
0
11
-45.121927166855905
21
-25.268133351160277
31
0
0
LINE
5
104
100
AcDbEntity
8
0
100
AcDbLine
10
-41.222873816100019
20
-28.375170323952922
30
0
11
-38.458296322130103
21
-40.446482139443006
31
0
0
LINE
5
105
100
AcDbEntity
8
0
100
AcDbLine
10
-27.676884768574848
20
-39.865468463943913
30
0
11
-34.491642165374415
21
-25.268133351160277
31
0
0
SPLINE
5
106
100
AcDbEntity
8
0
100
AcDbSpline
70
4
71
5
72
21
73
15
74
0
42
0.000000001
43
0.0000000001
44
0.0000000001
40
0
40
0
40
0
40
0
40
0
40
0
40
0.10000000000000001
40
0.20000000000000001
40
0.30000000000000004
40
0.40000000000000002
40
0.5
40
0.59999999999999998
40
0.69999999999999996
40
0.79999999999999993
40
0.89999999999999991
40
0.93185294388970907
40
0.93185294388970907
40
0.93185294388970907
40
0.93185294388970907
40
0.93185294388970907
40
0.93185294388970907
41
1
41
1
41
1
41
1
41
1
41
1
41
1
41
1
41
1
41
1
41
1
41
1
41
1
41
1
41
1
10
-34.491642165374415
20
-25.268133351160277
30
0
10
-34.587806430503242
20
-25.10025405447383
30
0
10
-34.767293233458233
20
-24.765011431973534
30
0
10
-34.997997697491925
20
-24.263695433280688
30
0
10
-35.227289381197991
20
-23.598420709651165
30
0
10
-35.374814626964834
20
-22.772415810158357
30
0
10
-35.371970834200859
20
-21.952452624687172
30
0
10
-35.208275158404447
20
-21.138952345982421
30
0
10
-34.881330818515998
20
-20.332011274888092
30
0
10
-34.4009115292667
20
-19.531236710951134
30
0
10
-33.864692415344848
20
-18.844475869259149
30
0
10
-33.382151331514379
20
-18.319573774376352
30
0
10
-33.012352161372647
20
-17.954157284221207
30
0
10
-32.79166914057808
20
-17.746764909571379
30
0
10
-32.737752944503093
20
-17.696687459667096
30
0
0
LINE
5
107
100
AcDbEntity
8
0
100
AcDbLine
10
-31.376669621441945
20
-17.162106235200156
30
0
11
-19.178865789470446
21
-17.162106235200167
31
0
0
LINE
5
108
100
AcDbEntity
8
0
100
AcDbLine
10
-16.337118073689528
20
-15.123599823246343
30
0
11
-14.091423179881183
21
-8.4863238037683537
31
0
0
LINE
5
109
100
AcDbEntity
8
0
100
AcDbLine
10
-14.884295538201211
20
-7.1778139073351959
30
0
11
-24.232886502629079
21
-5.7170965691433437
31
0
0
LINE
5
110
100
AcDbEntity
8
0
100
AcDbLine
10
-25.501321182218661
20
-4.2350785185166915
30
0
11
-25.501321182218661
21
2.3085203281387368
31
0
0
LINE
5
111
100
AcDbEntity
8
0
100
AcDbLine
10
-26.43209173274014
20
2.5623642423920048
30
0
11
-33.717019006870693
21
-9.8000835303569538
31
0
0
LINE
5
112
100
AcDbEntity
8
0
100
AcDbLine
10
-38.024724512085506
20
-12.261644387824283
30
0
11
-55.42754079642846
21
-12.261644387824283
31
0
0
LINE
5
113
100
AcDbEntity
8
0
100
AcDbLine
10
-58.391576897681759
20
-8.7985137470034562
30
0
11
-57.115273893944341
21
-0.6301745230839928
31
0
0
LINE
5
114
100
AcDbEntity
8
0
100
AcDbLine
10
-54.090169156819591
20
2.6434329550380298
30
0
11
-41.08676111151383
21
5.7411114456399135
31
0
0
ARC
5
115
100
AcDbEntity
8
0
100
AcDbCircle
10
-53.163225758939973
20
-1.2476820441784029
30
0
40
3.9999999999999645
210
0
220
-0
230
1
100
AcDbArc
50
103.39929002793779
51
171.1193408494801
0
ARC
5
116
100
AcDbEntity
8
0
100
AcDbCircle
10
-55.42754079642846
20
-9.2616443878242869
30
0
40
3.0000000000000004
210
0
220
-0
230
1
100
AcDbArc
50
171.11934084947973
51
270
0
ARC
5
117
100
AcDbEntity
8
0
100
AcDbCircle
10
-38.024724512085498
20
-7.2616443878243029
30
0
40
4.9999999999999813
210
0
220
0
230
1
100
AcDbArc
50
269.99999999999989
51
329.49006047733246
0
ARC
5
118
100
AcDbEntity
8
0
100
AcDbCircle
10
-56.55645653301611
20
-29.268133351160248
30
0
40
3.9999999999999769
210
0
220
-0
230
1
100
AcDbArc
50
89.999999999999901
51
163.55950986508878
0
ARC
5
119
100
AcDbEntity
8
0
100
AcDbCircle
10
-45.121927166855926
20
-29.268133351160301
30
0
40
4.0000000000000231
210
0
220
-0
230
1
100
AcDbArc
50
12.89944987285595
51
89.999999999999702
0
SPLINE
5
120
100
AcDbEntity
8
0
100
AcDbSpline
70
4
71
5
72
16
73
10
74
0
42
0.000000001
43
0.0000000001
44
0.0000000001
40
0.15453229090283091
40
0.15453229090283091
40
0.15453229090283091
40
0.15453229090283091
40
0.15453229090283091
40
0.15453229090283091
40
0.20000000000000001
40
0.40000000000000002
40
0.60000000000000009
40
0.80000000000000004
40
1
40
1
40
1
40
1
40
1
40
1
41
1
41
1
41
1
41
1
41
1
41
1
41
1
41
1
41
1
41
1
10
-72.644982550427102
20
-42.000000625840244
30
0
10
-72.565245701907941
20
-42.000000625839853
30
0
10
-72.134768294418848
20
-42.000000625837835
30
0
10
-71.353550327961486
20
-42.000000625835014
30
0
10
-70.221591802538882
20
-42.00000062583289
30
0
10
-68.738892718153338
20
-42.00000062583274
30
0
10
-67.335930482287253
20
-42.000000625833344
30
0
10
-66.283708805386354
20
-42.000000625833273
30
0
10
-65.582227687451436
20
-42.000000625832683
30
0
10
-65.231487128483735
20
-42.00000062583225
30
0
0
ARC
5
121
100
AcDbEntity
8
0
100
AcDbCircle
10
-36.508769646753635
20
-40.00000062583289
30
0
40
1.9999999999999973
210
0
220
0
230
1
100
AcDbArc
50
192.89944987304492
51
269.99999999994037
0
ARC
5
122
100
AcDbEntity
8
0
100
AcDbCircle
10
-65.231487128485071
20
-41.000000625832257
30
0
40
0.99999999999999645
210
0
220
0
230
1
100
AcDbArc
50
270.00000000007651
51
343.55950986509998
0
ARC
5
123
100
AcDbEntity
8
0
100
AcDbCircle
10
-72.644982550440773
20
-41.000000625840244
30
0
40
1.0000000000000067
210
0
220
0
230
1
100
AcDbArc
50
162.8544490810263
51
270.00000000028007
0
SPLINE
5
124
100
AcDbEntity
8
0
100
AcDbSpline
70
4
71
5
72
16
73
10
74
0
42
0.000000001
43
0.0000000001
44
0.0000000001
40
0
40
0
40
0
40
0
40
0
40
0
40
0.20000000000000001
40
0.40000000000000002
40
0.60000000000000009
40
0.80000000000000004
40
1
40
1
40
1
40
1
40
1
40
1
41
1
41
1
41
1
41
1
41
1
41
1
41
1
41
1
41
1
41
1
10
-36.508769646755717
20
-42.00000062583289
30
0
10
-36.209861431956398
20
-42.000000625833174
30
0
10
-35.612045002357945
20
-42.000000625833835
30
0
10
-34.715320357961097
20
-42.000000625835298
30
0
10
-33.519687498765165
20
-42.000000625837217
30
0
10
-32.025146424770085
20
-42.000000625839647
30
0
10
-30.829513565573436
20
-42.000000625841423
30
0
10
-29.932788921175728
20
-42.000000625842745
30
0
10
-29.334972491577073
20
-42.000000625843555
30
0
10
-29.036064276777708
20
-42.000000625843938
30
0
0
ARC
5
125
100
AcDbEntity
8
0
100
AcDbCircle
10
-29.036064276776212
20
-40.500000625843938
30
0
40
1.5000000000000036
210
0
220
0
230
1
100
AcDbArc
50
-90.000000000057142
51
25.025491210395128
0
ARC
5
126
100
AcDbEntity
8
0
100
AcDbCircle
10
-31.376669621441945
20
-19.162106235200159
30
0
40
2.0000000000000018
210
0
220
-0
230
1
100
AcDbArc
50
90
51
132.88598489919536
0
ARC
5
127
100
AcDbEntity
8
0
100
AcDbCircle
10
-19.178865789470446
20
-14.162106235200172
30
0
40
2.9999999999999938
210
0
220
0
230
1
100
AcDbArc
50
270
51
341.30696382574189
0
ARC
5
128
100
AcDbEntity
8
0
100
AcDbCircle
10
-15.038672418474818
20
-8.1658259410862915
30
0
40
0.99999999999999545
210
0
220
0
230
1
100
AcDbArc
50
-18.69303617425847
51
81.119340849479897
0
ARC
5
129
100
AcDbEntity
8
0
100
AcDbCircle
10
-26.001321182218661
20
2.3085203281387425
30
0
40
0.49999999999999822
210
0
220
0
230
1
100
AcDbArc
50
0
51
149.49006047733266
0
ARC
5
130
100
AcDbEntity
8
0
100
AcDbCircle
10
-41.133108281407814
20
5.9356671956007379
30
0
40
0.20000000000000015
210
-0
220
0
230
1
100
AcDbArc
50
-76.600709972061523
51
83.488567383872933
0
ARC
5
131
100
AcDbEntity
8
0
100
AcDbCircle
10
-57.909898702232752
20
3.3698661955717402
30
0
40
1.9999999999999927
210
0
220
0
230
1
100
AcDbArc
50
104.85437248217002
51
162.85444908131083
0
ARC
5
132
100
AcDbEntity
8
0
100
AcDbCircle
10
-24.001321182218661
20
-4.2350785185166933
30
0
40
1.4999999999999991
210
0
220
0
230
1
100
AcDbArc
50
180
51
261.11934084947961
0
CIRCLE
5
133
100
AcDbEntity
8
0
100
AcDbCircle
10
-20.103789239080633
20
-10.721177156559524
30
0
40
1.7499999999999993
210
0
220
0
230
1
0
ENDSEC
0
SECTION
2
OBJECTS
0
DICTIONARY
5
C
100
AcDbDictionary
3
ACAD_GROUP
350
D
3
ACAD_MLINESTYLE
350
17
0
DICTIONARY
5
D
100
AcDbDictionary
0
DICTIONARY
5
1A
330
C
100
AcDbDictionary
0
DICTIONARY
5
17
100
AcDbDictionary
0
ENDSEC
0
EOF
