0
SECTION
2
HEADER
9
$INSUNITS
70
4
9
$ACADVER
1
AC1014
9
$HANDSEED
5
FFFF
0
ENDSEC
0
SECTION
2
TABLES
0
TABLE
2
VPORT
5
8
100
AcDbSymbolTable
0
ENDTAB
0
TABLE
2
LTYPE
5
5
100
AcDbSymbolTable
0
LTYPE
5
14
100
AcDbSymbolTableRecord
100
AcDbLinetypeTableRecord
2
BYBLOCK
70
0
0
LTYPE
5
15
100
AcDbSymbolTableRecord
100
AcDbLinetypeTableRecord
2
BYLAYER
70
0
0
ENDTAB
0
TABLE
2
LAYER
5
2
100
AcDbSymbolTable
70
2
0
LAYER
5
50
100
AcDbSymbolTableRecord
100
AcDbLayerTableRecord
2
0
70
0
6
CONTINUOUS
0
ENDTAB
0
TABLE
2
STYLE
5
3
100
AcDbSymbolTable
70
1
0
STYLE
5
11
100
AcDbSymbolTableRecord
100
AcDbTextStyleTableRecord
2
STANDARD
70
0
0
ENDTAB
0
TABLE
2
VIEW
5
6
100
AcDbSymbolTable
70
0
0
ENDTAB
0
TABLE
2
UCS
5
7
100
AcDbSymbolTable
70
0
0
ENDTAB
0
TABLE
2
APPID
5
9
100
AcDbSymbolTable
70
2
0
APPID
5
12
100
AcDbSymbolTableRecord
100
AcDbRegAppTableRecord
2
ACAD
70
0
0
ENDTAB
0
TABLE
2
DIMSTYLE
5
A
100
AcDbSymbolTable
70
1
0
ENDTAB
0
TABLE
2
BLOCK_RECORD
5
1
100
AcDbSymbolTable
70
1
0
BLOCK_RECORD
5
1F
100
AcDbSymbolTableRecord
100
AcDbBlockTableRecord
2
*MODEL_SPACE
0
BLOCK_RECORD
5
1B
100
AcDbSymbolTableRecord
100
AcDbBlockTableRecord
2
*PAPER_SPACE
0
ENDTAB
0
ENDSEC
0
SECTION
2
BLOCKS
0
BLOCK
5
20
100
AcDbEntity
100
AcDbBlockBegin
2
*MODEL_SPACE
0
ENDBLK
5
21
100
AcDbEntity
100
AcDbBlockEnd
0
BLOCK
5
1C
100
AcDbEntity
100
AcDbBlockBegin
2
*PAPER_SPACE
0
ENDBLK
5
1D
100
AcDbEntity
100
AcDbBlockEnd
0
ENDSEC
0
SECTION
2
ENTITIES
0
ARC
5
100
100
AcDbEntity
8
0
100
AcDbCircle
10
14.320795511819597
20
22.182782716368781
30
0
40
0.99999999999999756
210
0
220
0
230
1
100
AcDbArc
50
111.26831929483411
51
170.23305019419692
0
LINE
5
101
100
AcDbEntity
8
0
100
AcDbLine
10
13.222497399552973
20
21.697173325562098
30
0
11
13.335289594554531
21
22.352423769769054
31
0
0
ARC
5
102
100
AcDbEntity
8
0
100
AcDbCircle
10
14.208003316741118
20
21.527532272175268
30
0
40
0.99999999990352018
210
0
220
0
230
1
100
AcDbArc
50
170.2330501942084
51
281.86446541831521
0
ARC
5
103
100
AcDbEntity
8
0
100
AcDbCircle
10
11.841868742968709
20
15.088218645603659
30
0
40
1.0000000000000016
210
0
220
0
230
1
100
AcDbArc
50
218.7870810603188
51
279.92440729308765
0
SPLINE
5
104
100
AcDbEntity
8
0
100
AcDbSpline
70
4
71
5
72
41
73
35
74
0
42
0.000000001
43
0.0000000001
44
0.0000000001
40
0
40
0
40
0
40
0
40
0
40
0
40
0.033333333333333333
40
0.066666666666666666
40
0.10000000000000001
40
0.13333333333333333
40
0.16666666666666666
40
0.19999999999999998
40
0.23333333333333331
40
0.26666666666666666
40
0.29999999999999999
40
0.33333333333333331
40
0.36666666666666664
40
0.39999999999999997
40
0.43333333333333329
40
0.46666666666666662
40
0.49999999999999994
40
0.53333333333333333
40
0.56666666666666665
40
0.59999999999999998
40
0.6333333333333333
40
0.66666666666666663
40
0.69999999999999996
40
0.73333333333333328
40
0.76666666666666661
40
0.79999999999999993
40
0.83333333333333326
40
0.86666666666666659
40
0.89999999999999991
40
0.93333333333333324
40
0.96666666666666656
40
1
40
1
40
1
40
1
40
1
40
1
41
1
41
1
41
1
41
1
41
1
41
1
41
1
41
1
41
1
41
1
41
1
41
1
41
1
41
1
41
1
41
1
41
1
41
1
41
1
41
1
41
1
41
1
41
1
41
1
41
1
41
1
41
1
41
1
41
1
41
1
41
1
41
1
41
1
41
1
41
1
10
15.307501818302811
20
9.2066901469933011
30
0
10
16.140401604953283
20
8.9856391728552474
30
0
10
17.779987889333519
20
8.5489779511737751
30
0
10
20.160727646747748
20
7.910308258516487
30
0
10
23.177481489917881
20
7.0914524184916248
30
0
10
26.684353568132014
20
6.1217889278785984
30
0
10
29.925632968883601
20
5.2036334604186507
30
0
10
32.900536607622911
20
4.3317057066705917
30
0
10
35.609694080800885
20
3.4967710854778189
30
0
10
38.056267730091605
20
2.6844596320974654
30
0
10
40.246200421948814
20
1.874238596556296
30
0
10
42.190774896317464
20
1.037892848885801
30
0
10
43.901313506389883
20
0.13956191200396573
30
0
10
45.374289766853096
20
-0.86233281393290218
30
0
10
46.578882284467497
20
-2.0136618944299904
30
0
10
47.44336509151826
20
-3.3630039744854323
30
0
10
47.841836332056225
20
-4.9600602554075364
30
0
10
47.631003368158687
20
-6.8452266051792545
30
0
10
46.68890035385941
20
-9.0384179799577602
30
0
10
44.949807833563582
20
-11.529238606461389
30
0
10
42.449504720502091
20
-14.263152758084225
30
0
10
39.315077520079335
20
-17.148886478216262
30
0
10
35.736592198528257
20
-20.072780645028931
30
0
10
31.945376373823681
20
-22.9106440023141
30
0
10
28.190078114817958
20
-25.54047911425744
30
0
10
24.713782688074538
20
-27.854943936731914
30
0
10
21.73103649927636
20
-29.773788889205846
30
0
10
19.403898793746762
20
-31.257153123496181
30
0
10
17.819853886009149
20
-32.317425012186057
30
0
10
16.963193864059097
20
-33.036032819870478
30
0
10
16.761532442256406
20
-33.52304906116597
30
0
10
17.064404064547045
20
-33.801137080212705
30
0
10
17.540635124483433
20
-33.960865389669493
30
0
10
17.968617827325772
20
-34.045691975937849
30
0
10
18.210233336609637
20
-34.082690097283539
30
0
0
LINE
5
105
100
AcDbEntity
8
0
100
AcDbLine
10
20.96888863186749
20
-34.285337464255349
30
0
11
18.210233336609637
21
-34.082690097283539
31
0
0
ARC
5
106
100
AcDbEntity
8
0
100
AcDbCircle
10
20.998193171454076
20
-33.886412353537835
30
0
40
0.40000000000169672
210
0
220
0
230
1
100
AcDbArc
50
265.79866992428521
51
269.99999999999284
0
LINE
5
107
100
AcDbEntity
8
0
100
AcDbLine
10
36.821870648898674
20
-34.286412353539532
30
0
11
20.998193171454027
21
-34.286412353539532
31
0
0
ARC
5
108
100
AcDbEntity
8
0
100
AcDbCircle
10
36.821870648898674
20
-32.286412353539561
30
0
40
1.9999999999999751
210
0
220
0
230
1
100
AcDbArc
50
270
51
316.49433359126658
0
LINE
5
109
100
AcDbEntity
8
0
100
AcDbLine
10
42.243927152946917
20
-29.47906512700229
30
0
11
38.272483230750389
21
-33.663264973602203
31
0
0
ARC
5
110
100
AcDbEntity
8
0
100
AcDbCircle
10
43.694539734798653
20
-30.855917747064957
30
0
40
2.0000000000000004
210
0
220
-0
230
1
100
AcDbArc
50
79.599201985133092
51
136.4943335912665
0
SPLINE
5
111
100
AcDbEntity
8
0
100
AcDbSpline
70
4
71
5
72
26
73
20
74
0
42
0.000000001
43
0.0000000001
44
0.0000000001
40
0.15223839920562018
40
0.15223839920562018
40
0.15223839920562018
40
0.15223839920562018
40
0.15223839920562018
40
0.15223839920562018
40
0.21876229935111557
40
0.28542896601778223
40
0.35209563268444888
40
0.41876229935111553
40
0.48542896601778218
40
0.55209563268444883
40
0.6187622993511156
40
0.68542896601778225
40
0.7520956326844489
40
0.81876229935111555
40
0.8854289660177822
40
0.95209563268444886
40
1.0187622993511154
40
1.0854289660177823
40
1.1520956326844489
40
1.1520956326844489
40
1.1520956326844489
40
1.1520956326844489
40
1.1520956326844489
40
1.1520956326844489
41
1
41
1
41
1
41
1
41
1
41
1
41
1
41
1
41
1
41
1
41
1
41
1
41
1
41
1
41
1
41
1
41
1
41
1
41
1
41
1
10
72.934412070675975
20
-40.22693833054538
30
0
10
72.778635837841705
20
-39.868670933850879
30
0
10
72.465276867056332
20
-39.180196103360423
30
0
10
71.990643588670977
20
-38.233718041671779
30
0
10
71.345372631547747
20
-37.139347528386367
30
0
10
70.494932960329606
20
-36.019110408898534
30
0
10
69.564801833089291
20
-35.104325466762425
30
0
10
68.509825149546032
20
-34.350293928929162
30
0
10
67.276680025764961
20
-33.715507464399252
30
0
10
65.811962164400512
20
-33.162860412009834
30
0
10
64.070319595608908
20
-32.660152853624936
30
0
10
62.02344648578142
20
-32.180512541064296
30
0
10
59.669791449923537
20
-31.702780407469525
30
0
10
57.025639963413354
20
-31.210622355950868
30
0
10
54.117671526804941
20
-30.691761071165548
30
0
10
50.976331788290977
20
-30.137321821037631
30
0
10
48.299259205993017
20
-29.660520872175255
30
0
10
46.208637544511937
20
-29.282661368517907
30
0
10
44.779226657547333
20
-29.021599601175964
30
0
10
44.05560542360589
20
-28.888779834165568
30
0
0
ARC
5
112
100
AcDbEntity
8
0
100
AcDbCircle
10
72.017349314793492
20
-40.625681232392211
30
0
40
1.0000000000000053
210
-0
220
0
230
1
100
AcDbArc
50
-90
51
23.499614694171299
0
LINE
5
113
100
AcDbEntity
8
0
100
AcDbLine
10
-0.81010432061064741
20
-41.625681232392267
30
0
11
72.017349314793492
21
-41.625681232392218
31
0
0
ARC
5
114
100
AcDbEntity
8
0
100
AcDbCircle
10
-0.83383060319204516
20
-39.125793822224587
30
0
40
2.500000000000004
210
0
220
0
230
1
100
AcDbArc
50
127.4378782995983
51
270.54377450533474
0
LINE
5
115
100
AcDbEntity
8
0
100
AcDbLine
10
31.08203429591784
20
-11.542258887404362
30
0
11
-2.353582841419759
21
-37.140761546819
31
0
0
SPLINE
5
116
100
AcDbEntity
8
0
100
AcDbSpline
70
4
71
5
72
36
73
30
74
0
42
0.000000001
43
0.0000000001
44
0.0000000001
40
0
40
0
40
0
40
0
40
0
40
0
40
0.040000000000000001
40
0.080000000000000002
40
0.12
40
0.16
40
0.20000000000000001
40
0.24000000000000002
40
0.28000000000000003
40
0.32000000000000001
40
0.35999999999999999
40
0.39999999999999997
40
0.43999999999999995
40
0.47999999999999993
40
0.51999999999999991
40
0.55999999999999994
40
0.59999999999999998
40
0.64000000000000001
40
0.68000000000000005
40
0.72000000000000008
40
0.76000000000000012
40
0.80000000000000016
40
0.84000000000000019
40
0.88000000000000023
40
0.92000000000000026
40
0.9600000000000003
40
1
40
1
40
1
40
1
40
1
40
1
41
1
41
1
41
1
41
1
41
1
41
1
41
1
41
1
41
1
41
1
41
1
41
1
41
1
41
1
41
1
41
1
41
1
41
1
41
1
41
1
41
1
41
1
41
1
41
1
41
1
41
1
41
1
41
1
41
1
41
1
10
13.686786322160206
20
-4.4403556183652215
30
0
10
13.804663177043627
20
-4.2361949177342284
30
0
10
14.035680645135436
20
-3.8405998736194014
30
0
10
14.367994119541754
20
-3.2853860438612994
30
0
10
14.782613723411462
20
-2.6216605039445824
30
0
10
15.258291055224802
20
-1.921084789132077
30
0
10
15.707350391608335
20
-1.3520583304739047
30
0
10
16.161312081317309
20
-0.91786753288658385
30
0
10
16.676184792915819
20
-0.6227491632898553
30
0
10
17.324764689895268
20
-0.47069469873670333
30
0
10
18.173278948349171
20
-0.46293990000799112
30
0
10
19.263569550414303
20
-0.59592365496079014
30
0
10
20.589673744216586
20
-0.85849298818483477
30
0
10
22.106212046844334
20
-1.2337262525067874
30
0
10
23.741232967370248
20
-1.7014043453463004
30
0
10
25.407219204997951
20
-2.2401875276796748
30
0
10
27.012377666664015
20
-2.8298016524424527
30
0
10
28.47219860555559
20
-3.4533053085545178
30
0
10
29.71977967646934
20
-4.0990539996511108
30
0
10
30.71988030871109
20
-4.7635171477466844
30
0
10
31.466430980826736
20
-5.4502656383208494
30
0
10
31.972032225271807
20
-6.1671087795782285
30
0
10
32.26008986288366
20
-6.9237821749429944
30
0
10
32.356558599580111
20
-7.72958173755692
30
0
10
32.280857391423993
20
-8.590597514397416
30
0
10
32.045301547872363
20
-9.509947730896652
30
0
10
31.734711653782419
20
-10.293075799907246
30
0
10
31.434473411015826
20
-10.907257684477432
30
0
10
31.204485593805774
20
-11.328609053335679
30
0
10
31.08203429591784
20
-11.542258887404362
30
0
0
LINE
5
117
100
AcDbEntity
8
0
100
AcDbLine
10
13.686786322160206
20
-4.4403556183652215
30
0
11
10.097960240733489
21
-22.783244478990675
31
0
0
ARC
5
118
100
AcDbEntity
8
0
100
AcDbCircle
10
8.1351749310134487
20
-22.399221266219364
30
0
40
1.9999999999999978
210
0
220
0
230
1
100
AcDbArc
50
265.46803685600338
51
348.92979742206069
0
LINE
5
119
100
AcDbEntity
8
0
100
AcDbLine
10
7.977144479234024
20
-24.392968084727265
30
0
11
-28.384228539170955
21
-21.510854793271797
31
0
0
SPLINE
5
120
100
AcDbEntity
8
0
100
AcDbSpline
70
4
71
5
72
21
73
15
74
0
42
0.000000001
43
0.0000000001
44
0.0000000001
40
0
40
0
40
0
40
0
40
0
40
0
40
0.10000000000000001
40
0.20000000000000001
40
0.30000000000000004
40
0.40000000000000002
40
0.5
40
0.59999999999999998
40
0.69999999999999996
40
0.79999999999999993
40
0.89999999999999991
40
1
40
1
40
1
40
1
40
1
40
1
41
1
41
1
41
1
41
1
41
1
41
1
41
1
41
1
41
1
41
1
41
1
41
1
41
1
41
1
41
1
10
-28.384228539170955
20
-21.510854793271797
30
0
10
-28.541881013528862
20
-21.48351641594218
30
0
10
-28.849495340681731
20
-21.424501595489126
30
0
10
-29.287846280923823
20
-21.32296590873263
30
0
10
-29.825402626819127
20
-21.161123478250946
30
0
10
-30.413721823799222
20
-20.911649205907366
30
0
10
-30.910445565580076
20
-20.610508484003027
30
0
10
-31.307286774180845
20
-20.253026802262099
30
0
10
-31.598343800876222
20
-19.835875204727355
30
0
10
-31.78578764642381
20
-19.360278292563088
30
0
10
-31.876618601314007
20
-18.830184734998554
30
0
10
-31.877914397090926
20
-18.365852638360224
30
0
10
-31.841231660343176
20
-17.996363662229228
30
0
10
-31.800311662139027
20
-17.740750319475154
30
0
10
-31.775735472780553
20
-17.610621819620754
30
0
0
LINE
5
121
100
AcDbEntity
8
0
100
AcDbLine
10
-31.775735472780553
20
-17.610621819620754
30
0
11
-18.196286799674851
21
-17.610621819620754
31
0
0
ARC
5
122
100
AcDbEntity
8
0
100
AcDbCircle
10
-18.196286799674851
20
-16.610621819620754
30
0
40
1.0000000000000031
210
0
220
0
230
1
100
AcDbArc
50
270
51
323.61564818416423
0
LINE
5
123
100
AcDbEntity
8
0
100
AcDbLine
10
-17.39123096232148
20
-17.203820857670603
30
0
11
-16.021312324343022
21
-15.344645563271268
31
0
0
ARC
5
124
100
AcDbEntity
8
0
100
AcDbCircle
10
-15.618784405666338
20
-15.641245082296194
30
0
40
0.49999999999999756
210
0
220
-0
230
1
100
AcDbArc
50
21.801409486352053
51
143.615648184164
0
LINE
5
125
100
AcDbEntity
8
0
100
AcDbLine
10
-15.15454606022371
20
-15.455549744119141
30
0
11
-14.123639542347487
21
-18.032816038809685
31
0
0
ARC
5
126
100
AcDbEntity
8
0
100
AcDbCircle
10
-13.195162851462223
20
-17.661425362455578
30
0
40
1.000000000000004
210
0
220
0
230
1
100
AcDbArc
50
201.80140948635187
51
267.13027590147794
0
LINE
5
127
100
AcDbEntity
8
0
100
AcDbLine
10
-13.245228047045181
20
-18.660171314232731
30
0
11
1.9112178026832138
21
-19.419934519739435
31
0
0
ARC
5
128
100
AcDbEntity
8
0
100
AcDbCircle
10
2.061413389432067
20
-16.423696664407995
30
0
40
2.9999999999999991
210
0
220
0
230
1
100
AcDbArc
50
267.13027590147834
51
349.69205756710232
0
LINE
5
129
100
AcDbEntity
8
0
100
AcDbLine
10
5.0129941173235606
20
-16.9605124677703
30
0
11
8.4464510448375947
21
1.9177046670859133
31
0
0
ARC
5
130
100
AcDbEntity
8
0
100
AcDbCircle
10
5.4948703169460984
20
2.45452047044822
30
0
40
3.0000000000000027
210
0
220
0
230
1
100
AcDbArc
50
-10.30794243289769
51
71.810954300348641
0
LINE
5
131
100
AcDbEntity
8
0
100
AcDbLine
10
6.4313301838574422
20
5.3046157175696917
30
0
11
4.29183767764835
21
6.007591826752682
31
0
0
ARC
5
132
100
AcDbEntity
8
0
100
AcDbCircle
10
3.3553778107370098
20
3.1574965796312093
30
0
40
3.0000000000000018
210
0
220
-0
230
1
100
AcDbArc
50
71.810954300348698
51
148.01372134686451
0
LINE
5
133
100
AcDbEntity
8
0
100
AcDbLine
10
0.81085287576950282
20
4.7466450482547708
30
0
11
-5.7439472613473042
21
-5.7488201155939649
31
0
0
ARC
5
134
100
AcDbEntity
8
0
100
AcDbCircle
10
-9.1366471746373108
20
-3.6299554907625597
30
0
40
3.9999999999999929
210
0
220
0
230
1
100
AcDbArc
50
261.14885615884975
51
328.0137213468646
0
LINE
5
135
100
AcDbEntity
8
0
100
AcDbLine
10
-23.438184927157018
20
-5.45109513999562
30
0
11
-9.7521187584667768
21
-7.5823212037879104
31
0
0
ARC
5
136
100
AcDbEntity
8
0
100
AcDbCircle
10
-23.130449135242284
20
-3.4749122834829378
30
0
40
2.0000000000000018
210
0
220
0
230
1
100
AcDbArc
50
180
51
261.14885615884975
0
LINE
5
137
100
AcDbEntity
8
0
100
AcDbLine
10
-25.130449135242287
20
-3.4749122834829405
30
0
11
-25.130449135242287
21
7.6631269890945219
31
0
0
SPLINE
5
138
100
AcDbEntity
8
0
100
AcDbSpline
70
4
71
5
72
21
73
15
74
0
42
0.000000001
43
0.0000000001
44
0.0000000001
40
0
40
0
40
0
40
0
40
0
40
0
40
0.10000000000000001
40
0.20000000000000001
40
0.30000000000000004
40
0.40000000000000002
40
0.5
40
0.59999999999999998
40
0.69999999999999996
40
0.79999999999999993
40
0.89999999999999991
40
1
40
1
40
1
40
1
40
1
40
1
41
1
41
1
41
1
41
1
41
1
41
1
41
1
41
1
41
1
41
1
41
1
41
1
41
1
41
1
41
1
10
-25.130449135242287
20
7.6631269890945219
30
0
10
-25.123854897027996
20
7.968029089008418
30
0
10
-25.087012021627885
20
8.5736761648537581
30
0
10
-24.96078218458214
20
9.4696749977121257
30
0
10
-24.648229697759874
20
10.638989700332001
30
0
10
-24.002462487781845
20
12.055804839322207
30
0
10
-23.084438882513801
20
13.424772489498222
30
0
10
-21.88181546041266
20
14.743723365824959
30
0
10
-20.403170437904645
20
16.014165040288713
30
0
10
-18.671671583758414
20
17.240169114424816
30
0
10
-16.712762349157749
20
18.426207127807803
30
0
10
-14.981310940525493
20
19.346158541032231
30
0
10
-13.596653238065455
20
20.020995945712855
30
0
10
-12.635922951893907
20
20.464275145847886
30
0
10
-12.146151009660855
20
20.684261555302644
30
0
0
CIRCLE
5
139
100
AcDbEntity
8
0
100
AcDbCircle
10
-18.495798495762831
20
2.1842136115049815
30
0
40
2.2500000000000009
210
0
220
-0
230
1
0
SPLINE
5
140
100
AcDbEntity
8
0
100
AcDbSpline
70
4
71
5
72
31
73
25
74
0
42
0.000000001
43
0.0000000001
44
0.0000000001
40
0
40
0
40
0
40
0
40
0
40
0
40
0.050000000000000003
40
0.10000000000000001
40
0.15000000000000002
40
0.20000000000000001
40
0.25
40
0.29999999999999999
40
0.34999999999999998
40
0.39999999999999997
40
0.44999999999999996
40
0.49999999999999994
40
0.54999999999999993
40
0.59999999999999998
40
0.65000000000000002
40
0.70000000000000007
40
0.75000000000000011
40
0.80000000000000016
40
0.8500000000000002
40
0.90000000000000024
40
0.95000000000000029
40
1
40
1
40
1
40
1
40
1
40
1
41
1
41
1
41
1
41
1
41
1
41
1
41
1
41
1
41
1
41
1
41
1
41
1
41
1
41
1
41
1
41
1
41
1
41
1
41
1
41
1
41
1
41
1
41
1
41
1
41
1
10
-12.146151009660855
20
20.684261555302644
30
0
10
-11.913136857707736
20
20.79858187548276
30
0
10
-11.430122350739911
20
21.007483966971886
30
0
10
-10.654642965698125
20
21.261621789945842
30
0
10
-9.5183306436819457
20
21.481555449585414
30
0
10
-7.9296383380546569
20
21.556566013682886
30
0
10
-6.1836318022549293
20
21.431487217092425
30
0
10
-4.3060733691440376
20
21.109969237523678
30
0
10
-2.3429237280840196
20
20.601773347896469
30
0
10
-0.36850059905592697
20
19.925863602645432
30
0
10
1.5272370700503175
20
19.108565618424677
30
0
10
3.2547824698380641
20
18.18110198533542
30
0
10
4.7397435786201081
20
17.177600572180495
30
0
10
5.9389980474205455
20
16.133079949789941
30
0
10
6.8556243317929413
20
15.081605803333586
30
0
10
7.5588281056523767
20
14.054322988828938
30
0
10
8.1614105331704305
20
13.07859664373817
30
0
10
8.7911864601361973
20
12.177150003368034
30
0
10
9.5669204133098322
20
11.367243178239175
30
0
10
10.567659006427279
20
10.659272771341984
30
0
10
11.836010005890296
20
10.058107945383291
30
0
10
13.079776581588707
20
9.6637325335039748
30
0
10
14.143091980983387
20
9.4164332396158734
30
0
10
14.90973744667304
20
9.2730277502374463
30
0
10
15.307501818302811
20
9.2066901469933011
30
0
0
ENDSEC
0
SECTION
2
OBJECTS
0
DICTIONARY
5
C
100
AcDbDictionary
3
ACAD_GROUP
350
D
3
ACAD_MLINESTYLE
350
17
0
DICTIONARY
5
D
100
AcDbDictionary
0
DICTIONARY
5
1A
330
C
100
AcDbDictionary
0
DICTIONARY
5
17
100
AcDbDictionary
0
ENDSEC
0
EOF
