0
SECTION
2
HEADER
9
$INSUNITS
70
4
9
$ACADVER
1
AC1014
9
$HANDSEED
5
FFFF
0
ENDSEC
0
SECTION
2
TABLES
0
TABLE
2
VPORT
5
8
100
AcDbSymbolTable
0
ENDTAB
0
TABLE
2
LTYPE
5
5
100
AcDbSymbolTable
0
LTYPE
5
14
100
AcDbSymbolTableRecord
100
AcDbLinetypeTableRecord
2
BYBLOCK
70
0
0
LTYPE
5
15
100
AcDbSymbolTableRecord
100
AcDbLinetypeTableRecord
2
BYLAYER
70
0
0
ENDTAB
0
TABLE
2
LAYER
5
2
100
AcDbSymbolTable
70
2
0
LAYER
5
50
100
AcDbSymbolTableRecord
100
AcDbLayerTableRecord
2
0
70
0
6
CONTINUOUS
0
ENDTAB
0
TABLE
2
STYLE
5
3
100
AcDbSymbolTable
70
1
0
STYLE
5
11
100
AcDbSymbolTableRecord
100
AcDbTextStyleTableRecord
2
STANDARD
70
0
0
ENDTAB
0
TABLE
2
VIEW
5
6
100
AcDbSymbolTable
70
0
0
ENDTAB
0
TABLE
2
UCS
5
7
100
AcDbSymbolTable
70
0
0
ENDTAB
0
TABLE
2
APPID
5
9
100
AcDbSymbolTable
70
2
0
APPID
5
12
100
AcDbSymbolTableRecord
100
AcDbRegAppTableRecord
2
ACAD
70
0
0
ENDTAB
0
TABLE
2
DIMSTYLE
5
A
100
AcDbSymbolTable
70
1
0
ENDTAB
0
TABLE
2
BLOCK_RECORD
5
1
100
AcDbSymbolTable
70
1
0
BLOCK_RECORD
5
1F
100
AcDbSymbolTableRecord
100
AcDbBlockTableRecord
2
*MODEL_SPACE
0
BLOCK_RECORD
5
1B
100
AcDbSymbolTableRecord
100
AcDbBlockTableRecord
2
*PAPER_SPACE
0
ENDTAB
0
ENDSEC
0
SECTION
2
BLOCKS
0
BLOCK
5
20
100
AcDbEntity
100
AcDbBlockBegin
2
*MODEL_SPACE
0
ENDBLK
5
21
100
AcDbEntity
100
AcDbBlockEnd
0
BLOCK
5
1C
100
AcDbEntity
100
AcDbBlockBegin
2
*PAPER_SPACE
0
ENDBLK
5
1D
100
AcDbEntity
100
AcDbBlockEnd
0
ENDSEC
0
SECTION
2
ENTITIES
0
LINE
5
100
100
AcDbEntity
8
0
100
AcDbLine
10
31.08203429591784
20
-11.542258887404362
30
0
11
-2.353582841419759
21
-37.140761546819
31
0
0
ARC
5
101
100
AcDbEntity
8
0
100
AcDbCircle
10
-0.83383060319204516
20
-39.125793822224587
30
0
40
2.500000000000004
210
0
220
0
230
1
100
AcDbArc
50
127.4378782995983
51
270.54377450533474
0
LINE
5
102
100
AcDbEntity
8
0
100
AcDbLine
10
42.243927152946917
20
-29.47906512700229
30
0
11
38.272483230750389
21
-33.663264973602203
31
0
0
LINE
5
103
100
AcDbEntity
8
0
100
AcDbLine
10
36.821870648898674
20
-34.286412353539532
30
0
11
20.998193171454027
21
-34.286412353539532
31
0
0
LINE
5
104
100
AcDbEntity
8
0
100
AcDbLine
10
12.01421747201891
20
14.103182648497576
30
0
11
30.552896850047304
21
17.346838553925558
31
0
0
SPLINE
5
105
100
AcDbEntity
8
0
100
AcDbSpline
70
4
71
5
72
31
73
25
74
0
42
0.000000001
43
0.0000000001
44
0.0000000001
40
0
40
0
40
0
40
0
40
0
40
0
40
0.050000000000000003
40
0.10000000000000001
40
0.15000000000000002
40
0.20000000000000001
40
0.25
40
0.29999999999999999
40
0.34999999999999998
40
0.39999999999999997
40
0.44999999999999996
40
0.49999999999999994
40
0.54999999999999993
40
0.59999999999999998
40
0.65000000000000002
40
0.70000000000000007
40
0.75000000000000011
40
0.80000000000000016
40
0.8500000000000002
40
0.90000000000000024
40
0.95000000000000029
40
1
40
1
40
1
40
1
40
1
40
1
41
1
41
1
41
1
41
1
41
1
41
1
41
1
41
1
41
1
41
1
41
1
41
1
41
1
41
1
41
1
41
1
41
1
41
1
41
1
41
1
41
1
41
1
41
1
41
1
41
1
10
34.735685498823756
20
24.680294223804147
30
0
10
34.545234961723764
20
24.485838672683595
30
0
10
34.147901360611414
20
24.104337878868172
30
0
10
33.502603522840325
20
23.554317556599692
30
0
10
32.543207931792693
20
22.865600778827918
30
0
10
31.178238454631391
20
22.07988367920877
30
0
10
29.649514453366347
20
21.369794984287928
30
0
10
27.964307773004219
20
20.734749957910751
30
0
10
26.137935270801556
20
20.172361478147501
30
0
10
24.19684056794172
20
19.677558385700976
30
0
10
22.181642857794639
20
19.241692026640219
30
0
10
20.151177317900792
20
18.851342912373489
30
0
10
18.17567970789592
20
18.490144050602634
30
0
10
16.329317404943968
20
18.140764500697454
30
0
10
14.682890420294585
20
17.786797858768143
30
0
10
13.296600732207624
20
17.4146267731529
30
0
10
12.211798957090709
20
17.015455141682427
30
0
10
11.444136079019319
20
16.587076962914892
30
0
10
10.971507473649982
20
16.136609353188163
30
0
10
10.745170778296636
20
15.678731113685348
30
0
10
10.708420977522797
20
15.232005945831551
30
0
10
10.79343580132009
20
14.89943188463614
30
0
10
10.90897136948066
20
14.671418657086093
30
0
10
11.007640989599309
20
14.529915452550314
30
0
10
11.062389512454288
20
14.461790573757696
30
0
0
ARC
5
106
100
AcDbEntity
8
0
100
AcDbCircle
10
15.642175533137797
20
10.668878063985696
30
0
40
1.5
210
0
220
0
230
1
100
AcDbArc
50
103.19266516553104
51
257.10789429508566
0
ARC
5
107
100
AcDbEntity
8
0
100
AcDbCircle
10
30.690775833287461
20
16.558809756240681
30
0
40
0.80000000000000915
210
-0
220
0
230
1
100
AcDbArc
50
-76.807334834468804
51
99.924407293087242
0
ARC
5
108
100
AcDbEntity
8
0
100
AcDbCircle
10
36.821870648898674
20
-32.286412353539561
30
0
40
1.9999999999999751
210
0
220
0
230
1
100
AcDbArc
50
270
51
316.49433359126658
0
ARC
5
109
100
AcDbEntity
8
0
100
AcDbCircle
10
43.694539734798653
20
-30.855917747064957
30
0
40
2.0000000000000004
210
0
220
-0
230
1
100
AcDbArc
50
79.599201985133092
51
136.4943335912665
0
SPLINE
5
110
100
AcDbEntity
8
0
100
AcDbSpline
70
4
71
5
72
56
73
50
74
0
42
0.000000001
43
0.0000000001
44
0.0000000001
40
0
40
0
40
0
40
0
40
0
40
0
40
0.022222222222222223
40
0.044444444444444446
40
0.066666666666666666
40
0.088888888888888892
40
0.11111111111111112
40
0.13333333333333333
40
0.15555555555555556
40
0.17777777777777778
40
0.20000000000000001
40
0.22222222222222224
40
0.24444444444444446
40
0.26666666666666666
40
0.28888888888888886
40
0.31111111111111106
40
0.33333333333333326
40
0.35555555555555546
40
0.37777777777777766
40
0.39999999999999986
40
0.42222222222222205
40
0.44444444444444425
40
0.46666666666666645
40
0.48888888888888865
40
0.51111111111111085
40
0.5333333333333331
40
0.55555555555555536
40
0.57777777777777761
40
0.59999999999999987
40
0.62222222222222212
40
0.64444444444444438
40
0.66666666666666663
40
0.68888888888888888
40
0.71111111111111114
40
0.73333333333333339
40
0.75555555555555565
40
0.7777777777777779
40
0.80000000000000016
40
0.82222222222222241
40
0.84444444444444466
40
0.86666666666666692
40
0.88888888888888917
40
0.91111111111111143
40
0.93333333333333368
40
0.95555555555555594
40
0.97777777777777819
40
1
40
1
40
1
40
1
40
1
40
1
41
1
41
1
41
1
41
1
41
1
41
1
41
1
41
1
41
1
41
1
41
1
41
1
41
1
41
1
41
1
41
1
41
1
41
1
41
1
41
1
41
1
41
1
41
1
41
1
41
1
41
1
41
1
41
1
41
1
41
1
41
1
41
1
41
1
41
1
41
1
41
1
41
1
41
1
41
1
41
1
41
1
41
1
41
1
41
1
41
1
41
1
41
1
41
1
41
1
41
1
10
13.686786322160206
20
-4.4403556183652215
30
0
10
13.730026651493967
20
-4.2700089719317429
30
0
10
13.82373661871479
20
-3.9386982788319664
30
0
10
13.985989106358405
20
-3.4698798487664129
30
0
10
14.245739095247531
20
-2.9011307467122904
30
0
10
14.64154415296942
20
-2.2841447731201767
30
0
10
15.104461037375003
20
-1.7608241519502963
30
0
10
15.626092452523155
20
-1.3301992278599357
30
0
10
16.192415065596727
20
-0.99045318990244613
30
0
10
16.7815574586384
20
-0.738284128528648
30
0
10
17.365056630542266
20
-0.56994542622162092
30
0
10
17.91293127606572
20
-0.48407485836440889
30
0
10
18.397728606003575
20
-0.48412300996431046
30
0
10
18.799017033445683
20
-0.58080380488199346
30
0
10
19.107665838610711
20
-0.79492449736754445
30
0
10
19.326600012892182
20
-1.1451164895446579
30
0
10
19.470970885847183
20
-1.6369216971638976
30
0
10
19.569734634723549
20
-2.2480393649554089
30
0
10
19.660932094098918
20
-2.9318374998186099
30
0
10
19.784164543900829
20
-3.6294926038400739
30
0
10
19.973588012275279
20
-4.279705779355937
30
0
10
20.251518029705807
20
-4.8286283577333338
30
0
10
20.619611740481272
20
-5.2416816881224149
30
0
10
21.06263748957851
20
-5.503992442958765
30
0
10
21.558469736505824
20
-5.615394214549716
30
0
10
22.085307337825451
20
-5.5873764426606174
30
0
10
22.631854242228435
20
-5.438909284059438
30
0
10
23.197854127353125
20
-5.1944635748179504
30
0
10
23.789012176249788
20
-4.8830629290156233
30
0
10
24.413497275440392
20
-4.5370934964899181
30
0
10
25.078058896857787
20
-4.1911560208624223
30
0
10
25.783655502534945
20
-3.8810957291912378
30
0
10
26.525139122942576
20
-3.6418603345944933
30
0
10
27.292562177697622
20
-3.5048881324760703
30
0
10
28.071931321374461
20
-3.4956492747542529
30
0
10
28.846176535585066
20
-3.6310777997320782
30
0
10
29.5960153938613
20
-3.9170735834997554
30
0
10
30.300854216210659
20
-4.3457819192710465
30
0
10
30.939679345871653
20
-4.8989496482400341
30
0
10
31.491960751387623
20
-5.5514572369868764
30
0
10
31.938546414252986
20
-6.2747351072451423
30
0
10
32.262584903685777
20
-7.040254874220329
30
0
10
32.450407264918091
20
-7.8228735929368254
30
0
10
32.492548836207028
20
-8.6045372685735888
30
0
10
32.38306412446174
20
-9.3733444437477296
30
0
10
32.118694022030233
20
-10.122191326508448
30
0
10
31.782220273286498
20
-10.702505898485452
30
0
10
31.459477948615664
20
-11.126680430275307
30
0
10
31.213058499703251
20
-11.404551414954707
30
0
10
31.082034295917843
20
-11.542258887404364
30
0
0
LINE
5
111
100
AcDbEntity
8
0
100
AcDbLine
10
13.686786322160206
20
-4.4403556183652215
30
0
11
10.097960240733489
21
-22.783244478990675
31
0
0
LINE
5
112
100
AcDbEntity
8
0
100
AcDbLine
10
7.977144479234024
20
-24.392968084727265
30
0
11
-28.384228539170955
21
-21.510854793271797
31
0
0
SPLINE
5
113
100
AcDbEntity
8
0
100
AcDbSpline
70
4
71
5
72
21
73
15
74
0
42
0.000000001
43
0.0000000001
44
0.0000000001
40
0
40
0
40
0
40
0
40
0
40
0
40
0.10000000000000001
40
0.20000000000000001
40
0.30000000000000004
40
0.40000000000000002
40
0.5
40
0.59999999999999998
40
0.69999999999999996
40
0.79999999999999993
40
0.89999999999999991
40
1
40
1
40
1
40
1
40
1
40
1
41
1
41
1
41
1
41
1
41
1
41
1
41
1
41
1
41
1
41
1
41
1
41
1
41
1
41
1
41
1
10
-28.384228539170955
20
-21.510854793271797
30
0
10
-28.541881013528862
20
-21.48351641594218
30
0
10
-28.849495340681731
20
-21.424501595489126
30
0
10
-29.287846280923823
20
-21.32296590873263
30
0
10
-29.825402626819127
20
-21.161123478250946
30
0
10
-30.413721823799222
20
-20.911649205907366
30
0
10
-30.910445565580076
20
-20.610508484003027
30
0
10
-31.307286774180845
20
-20.253026802262099
30
0
10
-31.598343800876222
20
-19.835875204727355
30
0
10
-31.78578764642381
20
-19.360278292563088
30
0
10
-31.876618601314007
20
-18.830184734998554
30
0
10
-31.877914397090926
20
-18.365852638360224
30
0
10
-31.841231660343176
20
-17.996363662229228
30
0
10
-31.800311662139027
20
-17.740750319475154
30
0
10
-31.775735472780553
20
-17.610621819620754
30
0
0
LINE
5
114
100
AcDbEntity
8
0
100
AcDbLine
10
-31.775735472780553
20
-17.610621819620754
30
0
11
-18.196286799674851
21
-17.610621819620754
31
0
0
LINE
5
115
100
AcDbEntity
8
0
100
AcDbLine
10
-17.39123096232148
20
-17.203820857670603
30
0
11
-16.021312324343022
21
-15.344645563271268
31
0
0
LINE
5
116
100
AcDbEntity
8
0
100
AcDbLine
10
-15.15454606022371
20
-15.455549744119141
30
0
11
-14.123639542347487
21
-18.032816038809685
31
0
0
LINE
5
117
100
AcDbEntity
8
0
100
AcDbLine
10
-13.245228047045181
20
-18.660171314232731
30
0
11
1.9112178026832138
21
-19.419934519739435
31
0
0
LINE
5
118
100
AcDbEntity
8
0
100
AcDbLine
10
5.0129941173235606
20
-16.9605124677703
30
0
11
8.4464510448375947
21
1.9177046670859133
31
0
0
LINE
5
119
100
AcDbEntity
8
0
100
AcDbLine
10
6.4313301838574422
20
5.3046157175696917
30
0
11
4.29183767764835
21
6.007591826752682
31
0
0
LINE
5
120
100
AcDbEntity
8
0
100
AcDbLine
10
0.81085287576950282
20
4.7466450482547708
30
0
11
-5.7439472613473042
21
-5.7488201155939649
31
0
0
LINE
5
121
100
AcDbEntity
8
0
100
AcDbLine
10
-23.438184927157018
20
-5.45109513999562
30
0
11
-9.7521187584667768
21
-7.5823212037879104
31
0
0
ARC
5
122
100
AcDbEntity
8
0
100
AcDbCircle
10
-9.1366471746373108
20
-3.6299554907625597
30
0
40
3.9999999999999929
210
0
220
0
230
1
100
AcDbArc
50
261.14885615884975
51
328.0137213468646
0
ARC
5
123
100
AcDbEntity
8
0
100
AcDbCircle
10
2.061413389432067
20
-16.423696664407995
30
0
40
2.9999999999999991
210
0
220
0
230
1
100
AcDbArc
50
267.13027590147834
51
349.69205756710232
0
ARC
5
124
100
AcDbEntity
8
0
100
AcDbCircle
10
-13.195162851462223
20
-17.661425362455578
30
0
40
1.000000000000004
210
0
220
0
230
1
100
AcDbArc
50
201.80140948635187
51
267.13027590147794
0
ARC
5
125
100
AcDbEntity
8
0
100
AcDbCircle
10
-15.618784405666338
20
-15.641245082296194
30
0
40
0.49999999999999756
210
0
220
-0
230
1
100
AcDbArc
50
21.801409486352053
51
143.615648184164
0
ARC
5
126
100
AcDbEntity
8
0
100
AcDbCircle
10
-18.196286799674851
20
-16.610621819620754
30
0
40
1.0000000000000031
210
0
220
0
230
1
100
AcDbArc
50
270
51
323.61564818416423
0
ARC
5
127
100
AcDbEntity
8
0
100
AcDbCircle
10
8.1351749310134487
20
-22.399221266219364
30
0
40
1.9999999999999978
210
0
220
0
230
1
100
AcDbArc
50
265.46803685600338
51
348.92979742206069
0
ARC
5
128
100
AcDbEntity
8
0
100
AcDbCircle
10
3.3553778107370098
20
3.1574965796312093
30
0
40
3.0000000000000018
210
0
220
-0
230
1
100
AcDbArc
50
71.810954300348698
51
148.01372134686451
0
ARC
5
129
100
AcDbEntity
8
0
100
AcDbCircle
10
5.4948703169460984
20
2.45452047044822
30
0
40
3.0000000000000027
210
0
220
0
230
1
100
AcDbArc
50
-10.30794243289769
51
71.810954300348641
0
LINE
5
130
100
AcDbEntity
8
0
100
AcDbLine
10
-25.130449135242287
20
-3.4749122834829405
30
0
11
-25.130449135242287
21
7.6631269890945219
31
0
0
SPLINE
5
131
100
AcDbEntity
8
0
100
AcDbSpline
70
4
71
5
72
21
73
15
74
0
42
0.000000001
43
0.0000000001
44
0.0000000001
40
0
40
0
40
0
40
0
40
0
40
0
40
0.10000000000000001
40
0.20000000000000001
40
0.30000000000000004
40
0.40000000000000002
40
0.5
40
0.59999999999999998
40
0.69999999999999996
40
0.79999999999999993
40
0.89999999999999991
40
1
40
1
40
1
40
1
40
1
40
1
41
1
41
1
41
1
41
1
41
1
41
1
41
1
41
1
41
1
41
1
41
1
41
1
41
1
41
1
41
1
10
-25.130449135242287
20
7.6631269890945219
30
0
10
-25.128315416651393
20
7.975246657282872
30
0
10
-25.099410467937648
20
8.5937247678245221
30
0
10
-24.982138083155832
20
9.5041576885761252
30
0
10
-24.675533805386625
20
10.682935931344543
30
0
10
-24.02659926357768
20
12.0942824182838
30
0
10
-23.094088417354794
20
13.439317535706486
30
0
10
-21.86513714025622
20
14.715033141429899
30
0
10
-20.348668992008111
20
15.923515917087412
30
0
10
-18.568811397853477
20
17.07040781013826
30
0
10
-16.552064324870017
20
18.161905562274207
30
0
10
-14.767491865850292
20
18.995076317112812
30
0
10
-13.339404797331484
20
19.598988856885043
30
0
10
-12.348152857572783
20
19.992432132227712
30
0
10
-11.842727881208832
20
20.186862374144422
30
0
0
SPLINE
5
132
100
AcDbEntity
8
0
100
AcDbSpline
70
4
71
5
72
26
73
20
74
0
42
0.000000001
43
0.0000000001
44
0.0000000001
40
0
40
0
40
0
40
0
40
0
40
0
40
0.066666666666666666
40
0.13333333333333333
40
0.20000000000000001
40
0.26666666666666666
40
0.33333333333333331
40
0.39999999999999997
40
0.46666666666666662
40
0.53333333333333333
40
0.59999999999999998
40
0.66666666666666663
40
0.73333333333333328
40
0.79999999999999993
40
0.86666666666666659
40
0.93333333333333324
40
1
40
1
40
1
40
1
40
1
40
1
41
1
41
1
41
1
41
1
41
1
41
1
41
1
41
1
41
1
41
1
41
1
41
1
41
1
41
1
41
1
41
1
41
1
41
1
41
1
41
1
10
-11.842727881208832
20
20.186862374144422
30
0
10
-11.395773441949551
20
20.28380229967615
30
0
10
-10.46636366978014
20
20.491304647125489
30
0
10
-8.9657428416835145
20
20.843426677128175
30
0
10
-6.7503841982221591
20
21.395245140077989
30
0
10
-3.6205003367984241
20
22.224189262210402
30
0
10
-0.13762215455484195
20
23.191714251676942
30
0
10
3.6703813985755303
20
24.291805720106026
30
0
10
7.7403161037308674
20
25.508322470523478
30
0
10
11.972385116995198
20
26.814478773109084
30
0
10
16.247663907784315
20
28.177983369881865
30
0
10
20.439411932251609
20
29.564220324501399
30
0
10
24.426906473485982
20
30.940046301829646
30
0
10
28.106978335333274
20
32.276869342250329
30
0
10
31.411053232358348
20
33.554994891891575
30
0
10
34.309568003090334
20
34.764827328130636
30
0
10
36.297801017112818
20
35.675202428224495
30
0
10
37.604811580599332
20
36.325635363820481
30
0
10
38.39488029605409
20
36.744981075720055
30
0
10
38.769597419859316
20
36.951085043288693
30
0
0
SPLINE
5
133
100
AcDbEntity
8
0
100
AcDbSpline
70
4
71
5
72
26
73
20
74
0
42
0.000000001
43
0.0000000001
44
0.0000000001
40
0
40
0
40
0
40
0
40
0
40
0
40
0.066666666666666666
40
0.13333333333333333
40
0.20000000000000001
40
0.26666666666666666
40
0.33333333333333331
40
0.39999999999999997
40
0.46666666666666662
40
0.53333333333333333
40
0.59999999999999998
40
0.66666666666666663
40
0.73333333333333328
40
0.79999999999999993
40
0.86666666666666659
40
0.93333333333333324
40
1
40
1
40
1
40
1
40
1
40
1
41
1
41
1
41
1
41
1
41
1
41
1
41
1
41
1
41
1
41
1
41
1
41
1
41
1
41
1
41
1
41
1
41
1
41
1
41
1
41
1
10
34.735685498823756
20
24.680294223804147
30
0
10
34.79543164101753
20
24.804084067648887
30
0
10
34.861764989308419
20
25.024555578684708
30
0
10
34.801743858223489
20
25.273920173382969
30
0
10
34.400737928120982
20
25.442695341353676
30
0
10
33.379326829451621
20
25.385759660663368
30
0
10
31.914878170502519
20
25.091616000995892
30
0
10
30.163011718632482
20
24.624205814084441
30
0
10
28.31162432434288
20
24.062721502958308
30
0
10
26.549251132552165
20
23.489760671850309
30
0
10
25.027684602889497
20
22.977380548904456
30
0
10
23.827894449058554
20
22.574581484431352
30
0
10
22.917843523529569
20
22.292025204705755
30
0
10
22.121887971469398
20
22.090772602737843
30
0
10
21.180844729609763
20
21.902100124250129
30
0
10
19.799826542554314
20
21.642991948307788
30
0
10
18.119648357088739
20
21.314712902167017
30
0
10
16.440249792917765
20
20.972341363762904
30
0
10
15.122222546124558
20
20.69776574610286
30
0
10
14.413600595684382
20
20.548895588447358
30
0
0
LINE
5
134
100
AcDbEntity
8
0
100
AcDbLine
10
13.222497399552973
20
21.697173325562098
30
0
11
13.335289594554531
21
22.352423769769054
31
0
0
SPLINE
5
135
100
AcDbEntity
8
0
100
AcDbSpline
70
4
71
5
72
26
73
20
74
0
42
0.000000001
43
0.0000000001
44
0.0000000001
40
0
40
0
40
0
40
0
40
0
40
0
40
0.066666666666666666
40
0.13333333333333333
40
0.20000000000000001
40
0.26666666666666666
40
0.33333333333333331
40
0.39999999999999997
40
0.46666666666666662
40
0.53333333333333333
40
0.59999999999999998
40
0.66666666666666663
40
0.73333333333333328
40
0.79999999999999993
40
0.86666666666666659
40
0.93333333333333324
40
1
40
1
40
1
40
1
40
1
40
1
41
1
41
1
41
1
41
1
41
1
41
1
41
1
41
1
41
1
41
1
41
1
41
1
41
1
41
1
41
1
41
1
41
1
41
1
41
1
41
1
10
13.958059499315954
20
23.114674654971616
30
0
10
14.288742051932816
20
23.243391800782113
30
0
10
14.970903276574244
20
23.503716409147831
30
0
10
16.056533824859525
20
23.902875345890287
30
0
10
17.630899433991413
20
24.45819849251648
30
0
10
19.817948724948273
20
25.223061978065033
30
0
10
22.225656926404362
20
26.097678982732887
30
0
10
24.840548148257948
20
27.117254755229759
30
0
10
27.623661875782513
20
28.301549974064134
30
0
10
30.50052013801637
20
29.643888143527164
30
0
10
33.346139562774638
20
31.095838945722804
30
0
10
35.999097580808424
20
32.577424223236903
30
0
10
38.281030343543961
20
33.991677892536025
30
0
10
40.013458487561891
20
35.236558948440447
30
0
10
41.038171457629545
20
36.218682736515923
30
0
10
41.234835117016367
20
36.864962725138469
30
0
10
40.688472153737322
20
37.086141200315012
30
0
10
39.882203145227038
20
37.083664333505872
30
0
10
39.169637463455672
20
37.007666876946146
30
0
10
38.769597419859316
20
36.951085043288693
30
0
0
ARC
5
136
100
AcDbEntity
8
0
100
AcDbCircle
10
14.320795511819597
20
22.182782716368781
30
0
40
0.99999999999999756
210
0
220
0
230
1
100
AcDbArc
50
111.26831929483411
51
170.23305019419692
0
ARC
5
137
100
AcDbEntity
8
0
100
AcDbCircle
10
14.208003316741118
20
21.527532272175268
30
0
40
0.99999999990352018
210
0
220
0
230
1
100
AcDbArc
50
170.2330501942084
51
281.86446541831521
0
ARC
5
138
100
AcDbEntity
8
0
100
AcDbCircle
10
11.841868742968709
20
15.088218645603659
30
0
40
1.0000000000000016
210
0
220
0
230
1
100
AcDbArc
50
218.7870810603188
51
279.92440729308765
0
CIRCLE
5
139
100
AcDbEntity
8
0
100
AcDbCircle
10
-18.495798495762831
20
2.1842136115049815
30
0
40
2.2500000000000009
210
0
220
0
230
1
0
ARC
5
140
100
AcDbEntity
8
0
100
AcDbCircle
10
-23.130449135242284
20
-3.4749122834829378
30
0
40
2.0000000000000018
210
0
220
0
230
1
100
AcDbArc
50
180
51
261.14885615884975
0
ARC
5
141
100
AcDbEntity
8
0
100
AcDbCircle
10
40.191674440455785
20
-15.367922914789204
30
0
40
0.19999999999934001
210
0
220
0
230
1
100
AcDbArc
50
311.46616912740564
51
316.61432870230061
0
LINE
5
142
100
AcDbEntity
8
0
100
AcDbLine
10
-0.81010432061064741
20
-41.625681232392267
30
0
11
72.017349314793492
21
-41.625681232392218
31
0
0
SPLINE
5
143
100
AcDbEntity
8
0
100
AcDbSpline
70
4
71
5
72
26
73
20
74
0
42
0.000000001
43
0.0000000001
44
0.0000000001
40
0.15223839920562018
40
0.15223839920562018
40
0.15223839920562018
40
0.15223839920562018
40
0.15223839920562018
40
0.15223839920562018
40
0.21876229935111557
40
0.28542896601778223
40
0.35209563268444888
40
0.41876229935111553
40
0.48542896601778218
40
0.55209563268444883
40
0.6187622993511156
40
0.68542896601778225
40
0.7520956326844489
40
0.81876229935111555
40
0.8854289660177822
40
0.95209563268444886
40
1.0187622993511154
40
1.0854289660177823
40
1.1520956326844489
40
1.1520956326844489
40
1.1520956326844489
40
1.1520956326844489
40
1.1520956326844489
40
1.1520956326844489
41
1
41
1
41
1
41
1
41
1
41
1
41
1
41
1
41
1
41
1
41
1
41
1
41
1
41
1
41
1
41
1
41
1
41
1
41
1
41
1
10
72.934412070675975
20
-40.22693833054538
30
0
10
72.778635837841705
20
-39.868670933850879
30
0
10
72.465276867056332
20
-39.180196103360423
30
0
10
71.990643588670977
20
-38.233718041671779
30
0
10
71.345372631547747
20
-37.139347528386367
30
0
10
70.494932960329606
20
-36.019110408898534
30
0
10
69.564801833089291
20
-35.104325466762425
30
0
10
68.509825149546032
20
-34.350293928929162
30
0
10
67.276680025764961
20
-33.715507464399252
30
0
10
65.811962164400512
20
-33.162860412009834
30
0
10
64.070319595608908
20
-32.660152853624936
30
0
10
62.02344648578142
20
-32.180512541064296
30
0
10
59.669791449923537
20
-31.702780407469525
30
0
10
57.025639963413354
20
-31.210622355950868
30
0
10
54.117671526804941
20
-30.691761071165548
30
0
10
50.976331788290977
20
-30.137321821037631
30
0
10
48.299259205993017
20
-29.660520872175255
30
0
10
46.208637544511937
20
-29.282661368517907
30
0
10
44.779226657547333
20
-29.021599601175964
30
0
10
44.05560542360589
20
-28.888779834165568
30
0
0
ARC
5
144
100
AcDbEntity
8
0
100
AcDbCircle
10
72.017349314793492
20
-40.625681232392211
30
0
40
1.0000000000000053
210
-0
220
0
230
1
100
AcDbArc
50
-90
51
23.499614694171299
0
SPLINE
5
145
100
AcDbEntity
8
0
100
AcDbSpline
70
4
71
5
72
41
73
35
74
0
42
0.000000001
43
0.0000000001
44
0.0000000001
40
0
40
0
40
0
40
0
40
0
40
0
40
0.033333333333333333
40
0.066666666666666666
40
0.10000000000000001
40
0.13333333333333333
40
0.16666666666666666
40
0.19999999999999998
40
0.23333333333333331
40
0.26666666666666666
40
0.29999999999999999
40
0.33333333333333331
40
0.36666666666666664
40
0.39999999999999997
40
0.43333333333333329
40
0.46666666666666662
40
0.49999999999999994
40
0.53333333333333333
40
0.56666666666666665
40
0.59999999999999998
40
0.6333333333333333
40
0.66666666666666663
40
0.69999999999999996
40
0.73333333333333328
40
0.76666666666666661
40
0.79999999999999993
40
0.83333333333333326
40
0.86666666666666659
40
0.89999999999999991
40
0.93333333333333324
40
0.96666666666666656
40
1
40
1
40
1
40
1
40
1
40
1
41
1
41
1
41
1
41
1
41
1
41
1
41
1
41
1
41
1
41
1
41
1
41
1
41
1
41
1
41
1
41
1
41
1
41
1
41
1
41
1
41
1
41
1
41
1
41
1
41
1
41
1
41
1
41
1
41
1
41
1
41
1
41
1
41
1
41
1
41
1
10
15.307501818302811
20
9.2066901469933011
30
0
10
16.140401604953283
20
8.9856391728552474
30
0
10
17.779987889333519
20
8.5489779511737751
30
0
10
20.160727646747748
20
7.910308258516487
30
0
10
23.177481489917881
20
7.0914524184916248
30
0
10
26.684353568132014
20
6.1217889278785984
30
0
10
29.925632968883601
20
5.2036334604186507
30
0
10
32.900536607622911
20
4.3317057066705917
30
0
10
35.609694080800885
20
3.4967710854778189
30
0
10
38.056267730091605
20
2.6844596320974654
30
0
10
40.246200421948814
20
1.874238596556296
30
0
10
42.190774896317464
20
1.037892848885801
30
0
10
43.901313506389883
20
0.13956191200396573
30
0
10
45.374289766853096
20
-0.86233281393290218
30
0
10
46.578882284467497
20
-2.0136618944299904
30
0
10
47.44336509151826
20
-3.3630039744854323
30
0
10
47.841836332056225
20
-4.9600602554075364
30
0
10
47.631003368158687
20
-6.8452266051792545
30
0
10
46.68890035385941
20
-9.0384179799577602
30
0
10
44.949807833563582
20
-11.529238606461389
30
0
10
42.449504720502091
20
-14.263152758084225
30
0
10
39.315077520079335
20
-17.148886478216262
30
0
10
35.736592198528257
20
-20.072780645028931
30
0
10
31.945376373823681
20
-22.9106440023141
30
0
10
28.190078114817958
20
-25.54047911425744
30
0
10
24.713782688074538
20
-27.854943936731914
30
0
10
21.73103649927636
20
-29.773788889205846
30
0
10
19.403898793746762
20
-31.257153123496181
30
0
10
17.819853886009149
20
-32.317425012186057
30
0
10
16.963193864059097
20
-33.036032819870478
30
0
10
16.761532442256406
20
-33.52304906116597
30
0
10
17.064404064547045
20
-33.801137080212705
30
0
10
17.540635124483433
20
-33.960865389669493
30
0
10
17.968617827325772
20
-34.045691975937849
30
0
10
18.210233336609637
20
-34.082690097283539
30
0
0
LINE
5
146
100
AcDbEntity
8
0
100
AcDbLine
10
20.96888863186749
20
-34.285337464255349
30
0
11
18.210233336609637
21
-34.082690097283539
31
0
0
ARC
5
147
100
AcDbEntity
8
0
100
AcDbCircle
10
20.998193171454076
20
-33.886412353537835
30
0
40
0.40000000000169672
210
0
220
0
230
1
100
AcDbArc
50
265.79866992428521
51
269.99999999999284
0
SPLINE
5
148
100
AcDbEntity
8
0
100
AcDbSpline
70
4
71
5
72
21
73
15
74
0
42
0.000000001
43
0.0000000001
44
0.0000000001
40
0
40
0
40
0
40
0
40
0
40
0
40
0.10000000000000001
40
0.20000000000000001
40
0.30000000000000004
40
0.40000000000000002
40
0.5
40
0.59999999999999998
40
0.69999999999999996
40
0.79999999999999993
40
0.89999999999999991
40
1
40
1
40
1
40
1
40
1
40
1
41
1
41
1
41
1
41
1
41
1
41
1
41
1
41
1
41
1
41
1
41
1
41
1
41
1
41
1
41
1
10
15.299836182770537
20
12.129290255522772
30
0
10
15.666847022666017
20
12.161042563066522
30
0
10
16.396147528022261
20
12.228054485014075
30
0
10
17.475935648451667
20
12.339093630539811
30
0
10
18.886854205259713
20
12.508540227817802
30
0
10
20.599133359859103
20
12.758509951772623
30
0
10
22.255043704615353
20
13.050355424251022
30
0
10
23.849300623425307
20
13.38800252651793
30
0
10
25.377896629252824
20
13.774428375162797
30
0
10
26.841680401479525
20
14.209002495908845
30
0
10
28.244828835845318
20
14.688621920355601
30
0
10
29.322455009315874
20
15.105667643188124
30
0
10
30.106974211780177
20
15.436058713774885
30
0
10
30.619623219909201
20
15.664018571970894
30
0
10
30.873356820150004
20
15.779923254087564
30
0
0
ENDSEC
0
SECTION
2
OBJECTS
0
DICTIONARY
5
C
100
AcDbDictionary
3
ACAD_GROUP
350
D
3
ACAD_MLINESTYLE
350
17
0
DICTIONARY
5
D
100
AcDbDictionary
0
DICTIONARY
5
1A
330
C
100
AcDbDictionary
0
DICTIONARY
5
17
100
AcDbDictionary
0
ENDSEC
0
EOF
